<svg width="777.000000" height="777.000000" viewBox="0 0 777 777" fill="none" xmlns="http://www.w3.org/2000/svg" xmlns:xlink="http://www.w3.org/1999/xlink">
	<desc>
			Created with Pixso.
	</desc>
	<defs/>
	<rect id="Component 2" width="776.488037" height="776.488220" transform="translate(-0.244141 -0.244141)" fill="#FFFFFF" fill-opacity="0"/>
	<circle id="Ellipse 6" cx="388.000000" cy="388.000000" r="330.000000" fill="#FBCE51" fill-opacity="1.000000"/>
	<path id="Vector" d="M530.53 671.05L530.14 670.23L531.64 669.21L527.46 660.86L527.12 663.62L525.22 671.87L525.4 672.33L526.96 671.83L527.35 672.65L522.76 674.98L522.37 674.16L523.62 673.27L518.47 662.83L517.01 663.35L516.62 662.54L521.31 660.23L521.7 661.05L520.35 661.91L524.6 670.38L524.88 667.81L526.84 659.37L526.49 658.76L524.81 659.33L524.42 658.52L529.11 656.21L529.5 657.03L528.15 657.89L533.3 668.33L534.74 667.9L535.13 668.72L530.53 671.05Z" fill="#313131" fill-opacity="1.000000" fill-rule="nonzero"/>
	<path id="Vector" d="M519.15 676.25C518.65 676.63 518.29 676.84 517.93 677.04C517.56 677.25 517.2 677.46 516.87 677.58C515.47 678.22 514.27 678.51 513.3 678.35C512.32 678.19 511.64 677.7 511.2 676.67C510.84 675.76 510.75 674.92 511.08 674.09C511.4 673.26 511.99 672.6 512.73 672.09C511.7 672.52 510.77 672.58 509.91 672.35C509.08 672.03 508.52 671.47 508.13 670.65C507.55 669.38 507.52 668.35 507.99 667.36C508.46 666.36 509.5 665.52 511.14 664.74C511.84 664.41 512.51 664.19 513.03 664.12C513.59 663.96 514.11 663.9 514.42 663.88C514.73 663.86 514.95 663.82 515.04 663.85L516.04 666.97L515.22 667.36L513.73 665.33C513.04 665.24 512.27 665.45 511.24 665.88C510.45 666.18 510.01 666.67 509.83 667.34C509.65 668 509.76 668.75 510.13 669.66C510.45 670.36 510.92 670.89 511.56 671.16C512.2 671.44 513.03 671.35 514.07 670.92L515.22 670.41L515.68 671.35L514.65 671.79C514.19 671.97 513.81 672.27 513.39 672.67C513.08 673.1 512.85 673.55 512.73 674.02C512.69 674.52 512.73 675.14 512.98 675.72C513.28 676.51 513.77 676.95 514.34 677.1C514.91 677.26 515.56 677.12 516.35 676.83C516.84 676.55 517.29 676.37 517.58 676.04C517.88 675.71 518.05 675.45 518.1 675.26L517.75 673.53L518.8 673L520.15 675.6C520.02 675.67 519.66 675.88 519.15 676.25Z" fill="#313131" fill-opacity="1.000000" fill-rule="nonzero"/>
	<path id="Vector" d="M503.93 681.75L505.44 681.44L505.81 682.35L503.43 683.24C503.07 683.45 502.52 683.61 501.94 683.86C501.36 684.12 501 684.33 500.76 684.46C499.18 685.06 497.91 685.23 497.05 685C496.2 684.77 495.54 684.19 495.2 683.18C494.9 682.38 494.82 681.55 495.12 680.81C495.32 680.05 495.91 679.39 496.63 678.98C495.5 679.39 494.54 679.54 493.71 679.21C492.88 678.89 492.22 678.31 491.88 677.3C491.38 676.14 491.47 675.05 492.06 673.98C492.65 672.92 493.81 672.01 495.73 671.3C496.19 671.12 496.52 671 496.96 670.92C497.84 670.64 498.42 670.39 498.64 670.35L500.92 669.43L501.19 670.32L499.77 671.06L503.93 681.75ZM496.03 672.09C494.87 672.6 494.13 673.11 493.73 673.82C493.34 674.53 493.45 675.27 493.72 676.16C494.08 677.07 494.55 677.61 495.19 677.88C495.83 678.15 496.67 678.07 497.7 677.64C498.86 677.13 499.62 676.93 499.98 676.72L498.02 671.51C497.61 671.5 497.04 671.75 496.03 672.09ZM499.29 678.16L498.38 678.53C497.59 678.83 497.05 679.29 496.78 679.93C496.51 680.57 496.52 681.29 496.91 682.11C497.21 682.9 497.68 683.43 498.22 683.68C498.76 683.93 499.6 683.85 500.64 683.41C501.09 683.23 501.45 683.02 501.91 682.84L502.27 682.63L500.42 677.75C500.18 677.89 499.84 678.01 499.29 678.16Z" fill="#313131" fill-opacity="1.000000" fill-rule="nonzero"/>
	<path id="Vector" d="M489.09 688.47L487.17 689.18L478.76 678.37L477.59 678.56L477.32 677.67L482.02 676.08L482.3 676.97L480.9 677.62L482.6 680.01L487.76 678.23L487.72 675.37L486.11 675.65L485.84 674.76L490.09 673.35L490.36 674.24L489.3 674.77L489.09 688.47ZM487.11 686L488.06 687.38L487.93 685.61L487.77 679.35L483.28 680.9L487.11 686Z" fill="#313131" fill-opacity="1.000000" fill-rule="nonzero"/>
	<path id="Vector" d="M474.48 679.15C475.62 679.46 476.49 680 477.26 680.92C478.04 681.84 478.66 682.92 479 684.34C479.36 685.66 479.43 686.9 479.2 688.16C478.96 689.42 478.39 690.39 477.57 691.19C476.74 691.98 475.76 692.64 474.53 693.02C473.64 693.29 472.47 693.49 471.13 693.54L470.51 693.57L469.76 690.31L470.98 689.93L472.14 692.07C472.33 692.12 472.71 692.23 473.11 692.23C473.52 692.24 474.07 692.08 474.72 691.95C475.48 691.75 476.11 691.3 476.57 690.72C477.04 690.13 477.36 689.3 477.4 688.39C477.44 687.49 477.34 686.34 477.03 685.23C476.71 684.13 476.27 683.1 475.67 682.32C475.06 681.55 474.43 680.87 473.69 680.57C472.96 680.27 472.08 680.14 471.19 680.41C470.54 680.54 470.06 680.82 469.82 680.96C469.58 681.1 469.29 681.43 469.11 681.69L468.89 683.67L467.72 683.86L467.4 681.23C467.62 681.19 467.98 680.98 468.46 680.7C468.85 680.4 469.21 680.19 469.67 680C470.03 679.79 470.58 679.64 471.13 679.48C472.19 678.95 473.34 678.85 474.48 679.15Z" fill="#313131" fill-opacity="1.000000" fill-rule="nonzero"/>
	<path id="Vector" d="M460.39 693.71C460.02 694.73 459.45 695.7 458.77 696.34C457.97 697.04 457.13 697.52 456.17 697.68C454.97 697.97 453.88 697.88 452.95 697.53C452.03 697.18 451.18 696.54 450.5 695.65C449.83 694.75 449.29 693.69 449.06 692.31C448.75 690.8 448.7 689.46 448.91 688.29C449.14 687.03 449.71 686.06 450.44 685.24C451.17 684.42 452.11 683.96 453.21 683.64C454.41 683.35 455.53 683.35 456.55 683.72C457.57 684.1 458.32 684.71 459.03 685.5C459.7 686.4 460.23 687.46 460.47 688.85L463.4 688.2L462.17 682.88L460.59 683.07L460.42 682.21L465.43 681.01L465.6 681.87L464.14 682.39L466.81 693.7L468.27 693.58L468.45 694.45L463.56 695.58L463.38 694.72L464.85 694.19L463.71 689.31L460.76 690.04C460.79 691.48 460.67 692.67 460.39 693.71ZM458.32 694.59C458.75 693.38 458.75 691.85 458.29 689.79C457.84 688.04 457.19 686.64 456.3 685.79C455.41 684.94 454.39 684.57 453.09 684.83C451.9 685.12 451.19 685.85 450.79 686.97C450.39 688.08 450.46 689.73 450.93 691.79C451.37 693.54 451.92 694.91 452.82 695.76C453.68 696.7 454.73 696.98 455.83 696.67C457.1 696.5 457.9 695.8 458.32 694.59Z" fill="#313131" fill-opacity="1.000000" fill-rule="nonzero"/>
	<path id="Vector" d="M439.12 692.9C438.55 692.34 437.73 691.61 436.86 690.67C436.23 689.99 435.86 689.48 435.53 689.19C435.2 688.9 434.94 688.73 434.75 688.68L434.06 688.59L433.88 687.73L436.13 687.31C436.44 687.3 436.8 687.49 437.2 687.91C437.6 688.32 438.23 689 438.91 689.89C439.75 690.93 440.38 691.61 440.94 692.17C441.41 692.7 441.86 692.92 442.29 692.84L443.46 692.64L442.53 687.4L440.88 687.47L440.7 686.6L445.73 685.71L445.88 686.67L444.44 687.1L446.47 698.54L448 698.54L448.15 699.5L443.24 700.32L443.14 699.17L444.6 698.65L443.69 693.31L442.09 693.6L439.27 699.56L440.82 699.47L440.97 700.43L436.47 701.26L436.32 700.3L437.76 699.87L440.82 693.77C440.32 693.73 439.71 693.37 439.12 692.9Z" fill="#313131" fill-opacity="1.000000" fill-rule="nonzero"/>
	<path id="Vector" d="M430.76 688.73C431.76 689.2 432.49 689.9 433.02 690.96C433.57 691.93 433.96 693.15 434.2 694.54C434.44 695.93 434.3 697.21 433.87 698.42C433.47 699.54 432.81 700.48 432.01 701.18C431.11 701.86 430.18 702.32 428.91 702.49C426.99 702.79 425.38 702.36 424.25 701.24C423.13 700.13 422.32 698.59 422.09 696.39C421.88 694.9 422.02 693.62 422.42 692.5C422.84 691.29 423.48 690.44 424.3 689.65C425.2 688.97 426.23 688.53 427.4 688.34C428.67 688.17 429.77 688.26 430.76 688.73ZM431.54 699.53C432.06 698.34 432.25 696.87 432 694.76C431.79 692.87 431.24 691.5 430.4 690.46C429.56 689.42 428.54 689.05 427.37 689.24C426.19 689.44 425.32 690.02 424.8 691.21C424.28 692.39 424.06 693.96 424.34 695.97C424.55 697.86 425.1 699.23 425.96 700.17C426.74 701.09 427.73 701.56 429 701.39C430.12 701.39 431.01 700.71 431.54 699.53Z" fill="#313131" fill-opacity="1.000000" fill-rule="nonzero"/>
	<path id="Vector" d="M419.39 702.28L420.89 702.38L420.95 703.31L418.44 703.56C418.03 703.55 417.48 703.71 416.86 703.74C416.21 703.88 415.81 703.87 415.59 703.91C413.92 704.08 412.63 703.94 411.85 703.42C411.07 702.91 410.66 702.18 410.53 701.13C410.45 700.3 410.68 699.44 411.05 698.83C411.42 698.21 412.16 697.7 413.05 697.43C411.9 697.53 410.93 697.37 410.15 696.85C409.37 696.34 408.98 695.52 408.92 694.59C408.85 693.35 409.13 692.3 409.98 691.41C410.83 690.52 412.2 689.97 414.28 689.81C414.71 689.72 415.11 689.73 415.61 689.76C416.55 689.71 417.17 689.67 417.36 689.72L419.87 689.48L419.92 690.41L418.41 690.72L419.39 702.28ZM414.4 690.86C413.16 690.94 412.25 691.3 411.78 691.89C411.23 692.46 411.02 693.22 411.17 694.17C411.23 695.11 411.55 695.8 412.07 696.15C412.59 696.49 413.45 696.72 414.5 696.59C415.74 696.52 416.58 696.44 416.91 696.32L416.46 690.8C416.08 690.7 415.46 690.74 414.4 690.86ZM415.96 697.6L414.91 697.72C414.07 697.8 413.37 698.12 413.03 698.64C412.69 699.16 412.48 699.92 412.57 700.76C412.65 701.6 412.87 702.27 413.39 702.61C413.91 702.95 414.67 703.16 415.73 703.03C416.16 702.94 416.66 702.98 417.11 702.79L417.54 702.71L417.11 697.5C416.8 697.51 416.49 697.53 415.96 697.6Z" fill="#313131" fill-opacity="1.000000" fill-rule="nonzero"/>
	<path id="Vector" d="M390.04 705.01L389.98 704.08L391.58 703.8L391.23 692.19L389.44 692.02L389.39 691.09L394.62 690.96L394.67 691.89L393.09 692.08L393.42 703.78L399.37 703.64L399.04 691.94L397.35 691.79L397.29 690.86L402.52 690.74L402.58 691.67L401.09 691.88L401.45 703.49L403.02 703.7L403.07 704.63L390.04 705.01Z" fill="#313131" fill-opacity="1.000000" fill-rule="nonzero"/>
	<path id="Vector" d="M385.63 691.81C386.48 692.45 387.18 693.25 387.59 694.37C388.03 695.41 388.2 696.68 388.22 698.11C388.15 699.51 387.91 700.78 387.32 701.84C386.73 702.9 386 703.73 385.04 704.28C384.07 704.84 382.97 705.16 381.85 705.16C379.92 705.15 378.47 704.46 377.46 703.27C376.48 701.99 376.01 700.34 376 698.09C375.98 696.66 376.33 695.33 376.92 694.27C377.52 693.2 378.27 692.28 379.23 691.73C380.2 691.17 381.3 690.86 382.52 690.88C383.74 690.9 384.78 691.18 385.63 691.81ZM384.87 702.61C385.56 701.57 385.97 700.05 386 698.02C385.98 696.18 385.68 694.68 385.05 693.59C384.42 692.51 383.45 691.94 382.24 691.92C381.02 691.9 380.06 692.46 379.37 693.5C378.69 694.53 378.25 696.15 378.22 698.18C378.21 700.11 378.45 701.5 379.17 702.61C379.8 703.69 380.77 704.26 381.98 704.28C383.16 704.08 384.09 703.62 384.87 702.61Z" fill="#313131" fill-opacity="1.000000" fill-rule="nonzero"/>
	<path id="Vector" d="M370.12 695.7C370.49 693.97 370.91 692.76 371.55 691.91C371.86 691.48 372.16 691.16 372.52 690.95C372.88 690.74 373.31 690.65 373.72 690.66C374.31 690.71 374.72 690.72 375 690.8L375 692.32C374.72 692.25 374.21 692.22 373.62 692.16C373.43 692.11 373.21 692.15 372.97 692.29C372.73 692.43 372.59 692.59 372.44 692.76C371.34 694.2 370.74 697.19 370.45 701.7L370.35 703.2L372.5 703.57L372.46 704.48L361.63 703.82L361.67 702.91L363.44 702.77L364.21 691.16L362.35 690.87L362.39 689.96L368.09 690.37L368.05 691.28L366.09 691.36L365.32 702.97L369.14 703.18L369.29 701.49C369.56 699.32 369.78 697.34 370.12 695.7Z" fill="#313131" fill-opacity="1.000000" fill-rule="nonzero"/>
	<path id="Vector" d="M358.24 702.4L359.76 702.81L359.63 703.69L350.13 702.67L350.2 699.74L351.29 699.83L351.62 701.64L356.24 702.27L356.83 697.03L353.76 696.72L353.35 698.24L352.35 698.17L352.78 693.91L353.78 693.97L353.85 695.62L356.9 696.03L357.47 690.48L352.17 690.08L350.97 692.3L349.88 691.81L350.74 688.58L361.04 689.7L360.9 690.58L359.37 690.58L358.24 702.4Z" fill="#313131" fill-opacity="1.000000" fill-rule="nonzero"/>
	<path id="Vector" d="M342.81 700.71L345.98 701.05L347.18 697.3L348.35 697.51L347.34 702.43L335.79 700.66L336.31 695.71L337.47 695.92L337.52 699.9L340.74 700.46L342.44 688.79L339.84 688.2L339.98 687.32L347.02 688.39L346.89 689.27L344.48 689.14L342.81 700.71Z" fill="#313131" fill-opacity="1.000000" fill-rule="nonzero"/>
	<path id="Vector" d="M329.48 691.54L330.36 691.67C330.7 691.56 331.11 691.16 331.45 690.64C331.79 690.12 332.38 689.46 332.89 688.68C333.41 687.9 333.87 687.31 334.19 686.89C334.5 686.46 334.74 686.33 334.93 686.38L337.46 686.85L337.32 687.73L336.58 687.84C336.37 687.88 336.15 687.92 335.86 688.25C335.59 688.49 335.15 688.98 334.69 689.57C334.08 690.32 333.62 690.91 333.2 691.31C332.77 691.81 332.41 692.01 331.95 692.2C332.75 692.62 333.32 693.17 333.64 693.87C333.96 694.57 334.04 695.41 333.88 696.38C333.6 697.83 332.94 698.78 332.02 699.14C331.02 699.48 329.77 699.56 328.13 699.22C327.75 699.12 327.37 699.02 326.8 698.86C326.23 698.71 325.76 698.58 325.47 698.51L322.85 698.01L322.99 697.13L324.59 697.25L326.83 685.83L325.14 685.28L325.28 684.4L330.7 685.45L330.57 686.33L328.78 686.15L327.89 691.01L329.48 691.54ZM326.94 697.98C327.51 698.14 327.98 698.26 328.36 698.37C329.34 698.53 330.05 698.51 330.66 698.17C331.26 697.82 331.63 697.2 331.81 696.13C331.97 695.16 331.89 694.32 331.45 693.69C331 693.06 330.39 692.7 329.44 692.44C328.46 692.28 327.8 692.1 327.49 692.12L326.39 697.74L326.94 697.98Z" fill="#313131" fill-opacity="1.000000" fill-rule="nonzero"/>
	<path id="Vector" d="M316.35 695.66L319.54 696.31L321.04 692.63L322.27 692.96L320.78 697.76L309.49 695.04L310.41 690.09L311.55 690.4L311.2 694.38L314.33 695.22L317.01 683.71L314.47 682.93L314.7 682.07L321.69 683.74L321.46 684.6L319 684.25L316.35 695.66Z" fill="#313131" fill-opacity="1.000000" fill-rule="nonzero"/>
	<path id="Vector" d="M304.35 680.01C305.15 680.84 305.58 681.87 305.78 683.05C305.97 684.22 305.83 685.51 305.45 686.93C305.1 688.26 304.38 689.39 303.56 690.19C302.71 691.08 301.65 691.62 300.55 691.93C299.35 692.22 298.25 692.13 297.02 691.8C296.07 691.55 295.07 691.08 293.82 690.43L293.27 690.19L294.42 687.03L295.66 687.36L295.43 689.75C295.57 689.99 295.83 690.16 296.18 690.35C296.54 690.55 297.08 690.8 297.65 690.95C298.41 691.16 299.13 691.14 299.9 690.94C300.57 690.71 301.32 690.2 301.83 689.42C302.44 688.67 302.91 687.68 303.21 686.53C303.52 685.39 303.71 684.32 303.68 683.3C303.64 682.27 303.37 681.38 302.96 680.66C302.54 679.94 301.85 679.45 300.9 679.19C300.24 679.01 299.76 678.89 299.36 678.88C298.95 678.87 298.62 678.99 298.38 679.13L297.16 680.63L296.07 680.14L297.23 677.7C297.51 677.78 297.92 677.78 298.42 677.81C298.92 677.85 299.33 677.85 299.73 677.86C300.14 677.87 300.71 678.02 301.28 678.17C302.51 678.5 303.58 679.09 304.35 680.01Z" fill="#313131" fill-opacity="1.000000" fill-rule="nonzero"/>
	<path id="Vector" d="M285.91 688.01L286.24 687.18L288.07 687.57L291.15 678.72L288.98 680.38L281.76 684.86L281.64 685.34L283.18 686.05L282.85 686.88L278.01 685.18L278.34 684.35L279.79 684.64L283.55 673.63L282.11 672.93L282.43 672.1L287.37 673.83L287.04 674.66L285.4 674.33L282.29 683.27L284.35 681.68L291.77 677.15L291.95 676.49L290.32 675.75L290.64 674.92L295.58 676.65L295.25 677.48L293.71 677.16L289.94 688.17L291.29 688.84L290.97 689.67L285.91 688.01Z" fill="#313131" fill-opacity="1.000000" fill-rule="nonzero"/>
	<path id="Vector" d="M266.82 680.96L268.47 676.31L269.68 676.73L268.78 680.47L272.53 682.08L276.89 671.13L273.9 669.72L274.23 668.89L281.06 671.53L280.73 672.36L278.74 671.83L274.52 682.62L276.3 683.6L275.97 684.43L266.82 680.96Z" fill="#313131" fill-opacity="1.000000" fill-rule="nonzero"/>
	<path id="Vector" d="M264.28 678.65L265.48 679.48L265.16 680.31L260.51 678.25L260.84 677.42L262.36 677.83L264.39 673.28L258.38 670.65L256.34 675.2L257.64 676.06L257.32 676.88L252.77 674.85L253.09 674.02L254.52 674.4L259.21 663.74L257.88 662.98L258.21 662.15L262.76 664.18L262.43 665.01L260.94 664.51L258.68 669.51L264.7 672.14L266.96 667.14L265.54 666.36L265.86 665.53L270.6 667.61L270.27 668.44L268.87 667.96L264.28 678.65Z" fill="#313131" fill-opacity="1.000000" fill-rule="nonzero"/>
	<path id="Vector" d="M246.57 671.76L244.77 670.87L246.48 657.28L245.53 656.62L245.95 655.81L250.36 658.01L249.94 658.81L248.44 658.31L247.99 661.14L252.84 663.56L254.83 661.45L253.44 660.57L253.86 659.76L257.81 661.74L257.39 662.54L256.28 662.14L246.57 671.76ZM246.81 668.57L246.47 670.21L247.64 668.89L252.01 664.36L247.8 662.21L246.81 668.57Z" fill="#313131" fill-opacity="1.000000" fill-rule="nonzero"/>
	<path id="Vector" d="M239.26 657.99C240.33 656.65 241.3 655.69 242.17 655.1C242.65 654.83 242.99 654.71 243.42 654.62C243.83 654.63 244.21 654.73 244.65 654.95C245.2 655.2 245.53 655.49 245.79 655.67L245.22 657.04C244.96 656.87 244.6 656.67 243.99 656.3C243.82 656.16 243.63 656.11 243.42 656.15C243.2 656.19 242.99 656.24 242.75 656.38C241.2 657.19 239.33 659.64 237.04 663.61L236.28 664.93L238.07 666.23L237.65 667.03L228.26 661.77L228.68 660.96L230.34 661.61L236.03 651.42L234.47 650.39L234.89 649.59L239.95 652.37L239.53 653.17L237.8 652.4L232.14 662.5L235.43 664.3L236.24 662.78C237.13 660.99 238.19 659.33 239.26 657.99Z" fill="#313131" fill-opacity="1.000000" fill-rule="nonzero"/>
	<path id="Vector" d="M211.21 651.29L211.72 650.51L213.36 651.25L219.56 641.41L218.22 640.33L218.73 639.55L223.34 642.52L222.82 643.3L221.28 642.58L215.08 652.43L216.42 653.5L215.91 654.28L211.21 651.29ZM224.02 652.89C222.72 652.03 221.95 651.11 221.61 650.1C221.27 649.09 221.45 648.02 222.17 646.89C222.9 645.66 223.89 645.01 225.06 644.82C226.24 644.62 227.47 644.95 228.8 645.71C228.96 645.86 229.15 645.91 229.32 646.06C229.48 646.2 229.65 646.35 229.84 646.4C230.42 646.86 230.94 647.21 231.37 647.52L233.54 648.92L233.03 649.7L231.58 649.01L225.38 658.85L226.53 659.88L226.02 660.65L221.48 657.81L222 657.03L223.72 657.8L226.03 654.14L224.02 652.89ZM229.37 647.39C229.2 647.25 228.94 647.08 228.49 646.85C227.62 646.31 226.76 646.09 225.99 646.29C225.23 646.49 224.57 647.03 223.91 647.97C223.37 648.84 223.17 649.6 223.37 650.37C223.57 651.14 224.11 651.79 224.99 652.33L226.64 653.39L230 648.07C229.79 647.71 229.62 647.57 229.37 647.39Z" fill="#313131" fill-opacity="1.000000" fill-rule="nonzero"/>
	<path id="Vector" d="M204.77 645.29L205.8 646.38L205.29 647.16L201.21 644.13L201.73 643.35L203.14 644.14L206.17 640.06L200.89 636.2L197.86 640.28L198.89 641.37L198.38 642.15L194.4 639.15L194.91 638.37L196.26 639.03L203.15 629.67L202.09 628.68L202.61 627.9L206.68 630.93L206.17 631.71L204.85 630.94L201.65 635.28L206.93 639.14L210.13 634.8L208.9 633.66L209.42 632.88L213.59 635.94L213.08 636.71L211.75 635.95L204.77 645.29Z" fill="#313131" fill-opacity="1.000000" fill-rule="nonzero"/>
	<path id="Vector" d="M188.93 634.83L187.36 633.49L191.94 620.56L191.17 619.64L191.75 618.98L195.62 622.05L195.01 622.81L193.71 621.95L192.68 624.63L196.95 628.11L199.41 626.53L198.28 625.42L198.86 624.76L202.3 627.51L201.72 628.17L200.65 627.58L188.93 634.83ZM189.94 631.84L189.32 633.4L190.72 632.35L195.93 628.86L192.26 625.84L189.94 631.84Z" fill="#313131" fill-opacity="1.000000" fill-rule="nonzero"/>
	<path id="Vector" d="M177.83 623.81L179.14 625.38L178.56 626.04L174.89 622.61L178.65 614.66L179.83 612.53L177.83 613.93L170.24 618.31L166.64 615L167.23 614.34L168.92 615.61L175.74 606.14L174.67 604.83L175.25 604.17L179.15 607.86L178.56 608.52L177.2 607.54L172.14 614.24L169.95 617.11L172.36 615.72L181.34 610.69L182.24 611.54L178.39 620.19L176.79 623.53L179.48 621.09L185.78 615.44L184.51 614.09L185.09 613.43L188.69 616.73L188.11 617.39L186.83 616.44L177.83 623.81Z" fill="#313131" fill-opacity="1.000000" fill-rule="nonzero"/>
	<path id="Vector" d="M161.5 609.86L160.07 608.35L166.2 596.14L165.54 595.15L166.22 594.52L169.65 598.09L168.97 598.72L167.7 597.77L166.29 600.34L170.14 604.23L172.74 602.89L171.76 601.61L172.44 600.97L175.56 604.15L174.88 604.78L173.94 604.12L161.5 609.86ZM162.89 606.97L162.07 608.48L163.62 607.67L169.27 604.81L165.92 601.36L162.89 606.97Z" fill="#313131" fill-opacity="1.000000" fill-rule="nonzero"/>
	<path id="Vector" d="M155.3 601.47L156.09 602.7L155.41 603.34L153.77 601.47C153.44 601.18 153.13 600.79 152.81 600.5C152.31 600.06 151.84 599.53 151.44 599.12C150.27 597.78 149.67 596.6 149.64 595.58C149.61 594.55 150.15 593.68 151.12 592.71C151.9 592.11 152.64 591.59 153.48 591.51C154.34 591.34 155.22 591.47 156.05 591.8C156.88 592.12 157.64 592.73 158.34 593.53C158.57 593.79 158.81 594.06 159.04 594.33C159.28 594.59 159.42 594.83 159.51 594.86L162.59 592.12L161 590.06L161.68 589.43L165.75 593.99L165.08 594.62L163.92 593.6L155.3 601.47ZM157.64 594.26C157 593.58 156.2 593.16 155.41 593.05C154.63 592.94 153.59 593.38 152.62 594.34C151.82 595.04 151.43 595.75 151.44 596.47C151.45 597.18 151.85 598 152.55 598.8C152.78 599.07 153.11 599.36 153.44 599.65C153.61 599.8 153.77 599.94 153.84 600.06L158.78 595.68C158.55 595.42 158.17 594.91 157.64 594.26Z" fill="#313131" fill-opacity="1.000000" fill-rule="nonzero"/>
	<path id="Vector" d="M155.6 583.63C155.79 584.8 155.61 585.87 155.01 586.93C154.52 588.02 153.64 589.01 152.58 589.95C151.51 590.88 150.36 591.39 149.19 591.58C148.01 591.78 146.8 591.76 145.71 591.26C144.59 590.86 143.65 590.2 142.81 589.16C142.2 588.39 141.55 587.4 140.95 586.22L140.69 585.64L143.38 583.61L144.15 584.53L142.64 586.37C142.68 586.58 142.7 586.89 142.88 587.35C143.09 587.71 143.37 588.19 143.74 588.7C144.28 589.35 144.9 589.72 145.66 589.93C146.42 590.13 147.25 590.05 148.14 589.78C149.03 589.51 149.99 588.95 150.91 588.18C151.83 587.4 152.54 586.68 153.08 585.8C153.62 584.93 153.94 584.1 153.95 583.29C153.97 582.48 153.67 581.68 153.16 580.94C152.78 580.43 152.36 580.11 152.03 579.82C151.7 579.53 151.42 579.45 151.11 579.47L149.21 580.08L148.56 579.09L150.85 577.77C151.01 577.92 151.34 578.21 151.77 578.53C152.19 578.84 152.55 579.04 152.88 579.33C153.2 579.62 153.51 580.01 154 580.45C154.96 581.42 155.5 582.48 155.6 583.63Z" fill="#313131" fill-opacity="1.000000" fill-rule="nonzero"/>
	<path id="Vector" d="M125.12 565.07L125.87 564.56L127.02 565.99L134.84 560.75L132.09 560.72L123.66 559.89L123.27 560.19L123.98 561.71L123.24 562.22L120.42 557.9L121.17 557.39L122.2 558.48L131.88 552.01L131.14 550.59L131.89 550.08L134.8 554.42L134.05 554.93L132.97 553.63L125.03 558.94L127.59 558.91L136.21 559.79L136.81 559.44L136 557.9L136.75 557.39L139.66 561.74L138.92 562.25L137.91 561.06L128.23 567.53L128.87 568.93L128.13 569.44L125.12 565.07Z" fill="#313131" fill-opacity="1.000000" fill-rule="nonzero"/>
	<path id="Vector" d="M118.5 554.43C118.1 554.02 117.8 553.64 117.47 553.34C117.14 553.05 117.02 552.71 116.79 552.45C116.02 551.12 115.61 549.99 115.58 548.97C115.55 547.94 116.04 547.26 117.01 546.7C117.85 546.21 118.71 546.04 119.57 546.27C120.42 546.5 121.11 546.98 121.74 547.66C121.18 546.7 120.94 545.72 121.17 544.86C121.39 544.01 121.88 543.32 122.63 542.81C123.74 542.09 124.91 541.89 125.93 542.27C126.95 542.64 127.94 543.52 128.94 545.11C129.29 545.71 129.64 546.32 129.79 546.87C129.95 547.42 130.14 547.88 130.25 548.21C130.36 548.55 130.41 548.76 130.38 548.86L127.47 550.22L126.98 549.37L128.75 547.71C128.74 546.99 128.45 546.2 127.86 545.33C127.45 544.61 126.86 544.15 126.26 544.09C125.67 544.03 124.8 544.21 123.96 544.69C123.33 545.14 122.89 545.63 122.62 546.27C122.44 546.94 122.62 547.8 123.2 548.67L123.92 549.78L123.05 550.36L122.5 549.39C122.22 548.91 121.89 548.62 121.47 548.3C121.04 547.99 120.57 547.86 120.07 547.83C119.56 547.79 119.01 547.95 118.41 548.3C117.69 548.72 117.34 549.24 117.19 549.81C117.13 550.4 117.27 551.05 117.68 551.77C117.96 552.25 118.27 552.64 118.62 552.84C118.95 553.13 119.24 553.21 119.45 553.16L121.13 552.59L121.78 553.58L119.42 555.19C119.23 555.14 118.99 554.87 118.5 554.43Z" fill="#313131" fill-opacity="1.000000" fill-rule="nonzero"/>
	<path id="Vector" d="M111.15 540.04L111.68 541.5L110.86 541.9L109.63 539.63C109.42 539.27 109.14 538.79 108.77 538.28C108.4 537.77 108.19 537.41 108.05 537.17C107.24 535.63 106.95 534.43 106.99 533.53C107.12 532.64 107.61 531.96 108.58 531.4C109.39 531.01 110.16 530.81 110.92 531.01C111.71 531.12 112.39 531.61 112.93 532.27C112.4 531.21 112.15 530.22 112.38 529.37C112.61 528.51 113.1 527.83 114.04 527.37C115.12 526.74 116.27 526.64 117.36 527.14C118.47 527.54 119.51 528.63 120.52 530.53C120.73 530.89 120.92 531.35 121.12 531.71C121.52 532.53 121.77 533.11 121.93 533.25L123.09 535.4L122.27 535.79L121.39 534.53L111.15 540.04ZM114.15 534.93L113.69 534C113.27 533.27 112.8 532.74 112.14 532.56C111.47 532.38 110.82 532.52 110.01 532.91C109.28 533.33 108.75 533.79 108.6 534.36C108.44 534.93 108.65 535.7 109.11 536.64C109.32 537 109.6 537.48 109.8 537.84L110.01 538.21L114.64 535.78C114.64 535.78 114.43 535.42 114.15 534.93ZM119.8 530.95C119.17 529.86 118.54 529.19 117.81 528.89C117.07 528.59 116.33 528.69 115.49 529.18C114.64 529.67 114.11 530.14 114.03 530.83C113.94 531.52 114.05 532.26 114.61 533.22C115.23 534.31 115.56 535.01 115.76 535.37L120.65 532.71C120.51 532.46 120.26 531.89 119.8 530.95Z" fill="#313131" fill-opacity="1.000000" fill-rule="nonzero"/>
	<path id="Vector" d="M102.65 526.15L101.73 524.27L111.34 514.63L111.02 513.52L111.84 513.13L114.01 517.58L113.19 517.97L112.33 516.62L110.18 518.59L112.53 523.5L115.4 523.05L114.9 521.49L115.72 521.09L117.61 525.06L116.79 525.46L116.14 524.47L102.65 526.15ZM104.81 523.78L103.48 524.95L105.21 524.59L111.45 523.72L109.35 519.39L104.81 523.78Z" fill="#313131" fill-opacity="1.000000" fill-rule="nonzero"/>
	<path id="Vector" d="M110.03 510.4C109.84 511.47 109.35 512.56 108.62 513.39C107.89 514.21 106.75 515.03 105.48 515.6C104.2 516.18 102.93 516.34 101.74 516.23C100.55 516.11 99.44 515.71 98.49 515.05C97.55 514.39 96.8 513.38 96.3 512.22C95.93 511.31 95.62 510.21 95.35 508.92L95.22 508.27L98.39 507.08L98.89 508.24L96.89 509.63C96.84 509.82 96.83 510.23 96.92 510.66C97.01 511.09 97.17 511.64 97.42 512.22C97.74 512.92 98.18 513.55 98.89 513.94C99.6 514.33 100.36 514.54 101.3 514.48C102.23 514.42 103.3 514.2 104.46 513.7C105.49 513.26 106.46 512.71 107.26 512C108.06 511.3 108.54 510.62 108.77 509.76C109.1 508.93 109.02 508.1 108.62 507.28C108.37 506.7 108.09 506.22 107.86 505.95C107.62 505.69 107.39 505.42 107.01 505.32L104.98 505.28L104.67 504.18L107.28 503.56C107.42 503.8 107.63 504.16 107.93 504.54C108.23 504.93 108.56 505.22 108.77 505.59C108.98 505.95 109.26 506.43 109.51 507.01C110.02 508.16 110.21 509.33 110.03 510.4Z" fill="#313131" fill-opacity="1.000000" fill-rule="nonzero"/>
	<path id="Vector" d="M93.84 498.22C92.77 498.04 91.77 497.57 91.02 496.96C90.26 496.35 89.68 495.48 89.34 494.47C88.93 493.34 88.8 492.29 89.08 491.24C89.36 490.2 89.81 489.3 90.61 488.6C91.43 487.8 92.4 487.24 93.65 486.76C95.11 486.24 96.38 486.07 97.6 486.09C98.79 486.21 99.9 486.61 100.75 487.24C101.6 487.88 102.28 488.77 102.71 489.8C103.12 490.93 103.22 492.08 103.04 493.15C102.85 494.22 102.31 495.09 101.49 495.89C100.66 496.69 99.67 497.34 98.42 497.82L99.5 500.66L104.59 498.76L104.21 497.13L105.1 496.86L106.86 501.71L105.97 501.98L105.23 500.56L94.37 504.58L94.68 506.09L93.79 506.36L92.01 501.6L92.9 501.33L93.64 502.75L98.4 500.97L97.32 498.14C96.12 498.43 94.88 498.5 93.84 498.22ZM92.7 496.39C93.93 496.72 95.51 496.53 97.46 495.73C99.16 495.07 100.39 494.28 101.18 493.26C101.96 492.25 102.14 491.18 101.73 490.05C101.32 488.92 100.47 488.29 99.33 487.98C98.19 487.67 96.59 487.96 94.67 488.67C92.96 489.33 91.73 490.12 90.97 491.04C90.19 492.05 90.03 493.03 90.44 494.16C90.73 495.35 91.56 496.08 92.7 496.39Z" fill="#313131" fill-opacity="1.000000" fill-rule="nonzero"/>
	<path id="Vector" d="M92.04 477.17C92.53 476.48 93.17 475.63 94.04 474.65C94.63 473.99 95.06 473.49 95.38 473.07C95.67 472.74 95.75 472.46 95.8 472.27L95.79 471.55L96.68 471.28L97.4 473.51C97.54 473.75 97.32 474.2 97 474.62C96.66 475.14 96.07 475.8 95.25 476.6C94.37 477.59 93.67 478.32 93.21 478.9C92.74 479.49 92.62 479.97 92.73 480.3L93.04 481.41L98.15 479.82L97.9 478.12L98.78 477.85L100.33 482.75L99.44 483.02L98.79 481.62L87.69 485.06L87.9 486.55L87.01 486.82L85.54 482.05L86.43 481.77L87.07 483.17L92.18 481.58L91.68 480.02L85.39 478.03L85.68 479.64L84.79 479.91L83.43 475.47L84.32 475.2L84.99 476.5L91.42 478.73C91.31 478.4 91.58 477.76 92.04 477.17Z" fill="#313131" fill-opacity="1.000000" fill-rule="nonzero"/>
	<path id="Vector" d="M95.03 468.29C94.66 469.31 94.02 470.16 93.13 470.84C92.23 471.51 91.05 472.11 89.73 472.47C88.32 472.81 87.08 472.88 85.91 472.67C84.75 472.46 83.78 471.9 82.96 471.17C82.13 470.44 81.58 469.47 81.29 468.27C80.77 466.4 80.99 464.83 81.96 463.46C82.92 462.19 84.39 461.26 86.47 460.7C87.89 460.37 89.22 460.32 90.39 460.53C91.55 460.74 92.62 461.33 93.44 462.06C94.27 462.79 94.82 463.75 95.11 464.95C95.4 466.15 95.41 467.27 95.03 468.29ZM84.38 470.43C85.59 470.85 87.14 470.76 89.1 470.27C90.95 469.84 92.27 469.08 93.12 468.19C93.97 467.29 94.28 466.15 93.96 465.05C93.67 463.85 92.85 463.12 91.64 462.7C90.43 462.27 88.78 462.34 86.82 462.83C84.97 463.25 83.65 464.02 82.8 464.91C81.95 465.8 81.67 466.85 81.96 468.05C82.46 469.2 83.26 470.03 84.38 470.43Z" fill="#313131" fill-opacity="1.000000" fill-rule="nonzero"/>
	<path id="Vector" d="M80.18 458.71L80.27 460.26L79.41 460.44L78.86 457.95C78.77 457.52 78.61 456.96 78.45 456.41C78.3 455.86 78.11 455.41 78.09 455.09C77.74 453.37 77.76 452.15 78.09 451.32C78.41 450.49 79.16 449.98 80.14 449.74C81 449.56 81.79 449.67 82.52 449.97C83.23 450.36 83.8 450.92 84.19 451.74C83.9 450.54 83.94 449.63 84.36 448.83C84.78 448.02 85.52 447.51 86.48 447.36C87.68 447.07 88.85 447.28 89.76 448.04C90.71 448.7 91.45 450.12 91.84 452.06C91.93 452.49 92.02 452.92 92.01 453.32C92.16 454.28 92.32 454.83 92.37 455.05L92.95 457.44L92.08 457.62L91.56 456.16L80.18 458.71ZM84.43 454.65L84.18 453.67C84 452.81 83.66 452.21 83.04 451.84C82.52 451.49 81.74 451.39 80.85 451.66C79.99 451.83 79.38 452.18 79.14 452.73C78.89 453.27 78.78 454.06 79 455.13C79.09 455.56 79.18 456 79.36 456.45L79.47 456.79L84.55 455.7C84.6 455.51 84.49 455.18 84.43 454.65ZM90.86 452.3C90.57 451.1 90.18 450.29 89.5 449.8C88.91 449.33 88.12 449.23 87.14 449.47C86.18 449.62 85.55 450.07 85.31 450.61C84.96 451.13 84.92 452.04 85.14 453.11C85.43 454.31 85.61 455.17 85.72 455.51L91.14 454.31C91.21 454.03 91.08 453.38 90.86 452.3Z" fill="#313131" fill-opacity="1.000000" fill-rule="nonzero"/>
	<path id="Vector" d="M73.72 429.99L74.68 429.84L75.18 431.39L86.66 429.58L86.62 427.84L87.58 427.69L88.42 432.91L87.46 433.06L87.06 431.52L75.57 433.33L76.52 439.29L88.1 437.51L88.06 435.76L89.02 435.61L89.77 440.8L88.81 440.96L88.38 439.52L76.89 441.33L76.87 442.95L75.91 443.1L73.72 429.99Z" fill="#313131" fill-opacity="1.000000" fill-rule="nonzero"/>
	<path id="Vector" d="M86.35 423.9C85.91 424.8 85.08 425.6 84.12 426.15C83.15 426.71 81.93 427.09 80.47 427.21C79.01 427.33 77.73 427.19 76.61 426.79C75.5 426.39 74.55 425.73 73.88 424.83C73.2 423.94 72.76 422.91 72.66 421.76C72.46 419.87 72.89 418.25 74.01 417.13C75.12 416 76.73 415.31 78.93 415.09C80.39 414.97 81.68 415.11 82.79 415.51C83.91 415.91 84.85 416.57 85.62 417.49C86.3 418.38 86.74 419.42 86.84 420.57C86.98 421.93 86.8 423 86.35 423.9ZM75.51 424.46C76.67 425.07 78.17 425.17 80.25 425.01C82.14 424.81 83.48 424.35 84.52 423.51C85.54 422.76 86.01 421.77 85.84 420.5C85.74 419.35 85.06 418.46 83.9 417.84C82.74 417.23 81.14 417.1 79.16 417.29C77.27 417.49 75.83 417.92 74.89 418.79C73.87 419.54 73.5 420.56 73.67 421.82C73.74 423.07 74.42 423.96 75.51 424.46Z" fill="#313131" fill-opacity="1.000000" fill-rule="nonzero"/>
	<path id="Vector" d="M80.44 409.07C82.14 409.22 83.49 409.48 84.39 409.93C84.84 410.15 85.17 410.44 85.4 410.71C85.61 411.07 85.73 411.41 85.81 411.84C85.85 412.46 85.84 412.86 85.77 413.15L84.29 413.36C84.27 413.05 84.27 412.65 84.26 411.93C84.22 411.71 84.17 411.5 84.01 411.35C83.84 411.21 83.68 411.06 83.42 410.89C81.91 410.08 78.83 409.76 74.27 410.07L72.81 410.19L72.75 412.31L71.82 412.37L71.14 401.59L72.07 401.53L72.43 403.26L84.04 402.5L84.12 400.69L85.05 400.63L85.45 406.34L84.52 406.4L84.22 404.48L72.63 405.15L72.83 408.97L74.48 408.9C76.82 408.92 78.75 408.93 80.44 409.07Z" fill="#313131" fill-opacity="1.000000" fill-rule="nonzero"/>
	<path id="Vector" d="M72.27 398.13L72.06 399.7L71.13 399.75L70.93 390.23L73.87 389.89L73.9 390.92L72.12 391.46L72.09 396.14L77.32 396.01L77.23 392.93L75.66 392.72L75.63 391.69L79.93 391.62L79.96 392.65L78.35 392.93L78.32 396.08L83.86 395.93L83.55 390.65L81.15 389.71L81.46 388.57L84.69 389.03L84.88 399.36L83.95 399.42L83.76 397.84L72.27 398.13Z" fill="#313131" fill-opacity="1.000000" fill-rule="nonzero"/>
	<path id="Vector" d="M72.06 382.59L72.12 385.76L76 386.49L75.98 387.71L71 387.29L71.27 375.65L76.28 375.57L76.26 376.79L72.34 377.36L72.19 380.58L83.95 380.78L84.16 378.09L85.07 378.13L84.9 385.21L84 385.17L83.85 382.69L72.06 382.59Z" fill="#313131" fill-opacity="1.000000" fill-rule="nonzero"/>
	<path id="Vector" d="M79.48 368.18L79.45 369.08C79.65 369.44 79.98 369.74 80.6 370.1C81.12 370.45 81.83 370.84 82.73 371.29C83.63 371.73 84.24 372.1 84.69 372.32C85.14 372.54 85.37 372.81 85.32 373L85.16 375.5L84.25 375.46L84.15 374.72C84.1 374.51 83.94 374.36 83.7 374.09C83.35 373.9 82.93 373.58 82.24 373.09C81.44 372.67 80.85 372.21 80.33 371.87C79.81 371.52 79.51 371.14 79.3 370.77C78.97 371.6 78.51 372.19 77.76 372.71C77.04 373.12 76.27 373.32 75.27 373.26C73.77 373.16 72.77 372.69 72.22 371.73C71.66 370.77 71.49 369.5 71.61 367.9C71.62 367.49 71.72 367.11 71.78 366.52C71.84 365.92 71.97 365.45 71.95 365.14L72.16 362.44L73.07 362.48L73.16 364.04L84.77 364.8L85.04 363.04L85.94 363.08L85.59 368.59L84.68 368.55L84.66 366.71L79.66 366.39L79.48 368.18ZM72.71 366.46C72.56 367.03 72.53 367.53 72.52 367.94C72.46 368.94 72.56 369.68 73.03 370.22C73.5 370.75 74.14 371.02 75.24 371.11C76.24 371.18 77 370.97 77.63 370.53C78.26 370.09 78.46 369.33 78.62 368.35C78.69 367.35 78.75 366.76 78.66 366.32L72.96 365.92L72.71 366.46Z" fill="#313131" fill-opacity="1.000000" fill-rule="nonzero"/>
	<path id="Vector" d="M73.66 355.72L73.41 358.91L77.21 359.93L77.1 361.12L72.12 360.3L73.39 348.72L78.4 349.04L78.28 350.23L74.37 350.41L73.91 353.64L85.58 354.94L86.08 352.32L86.96 352.46L86.17 359.58L85.29 359.44L85.33 357.01L73.66 355.72Z" fill="#313131" fill-opacity="1.000000" fill-rule="nonzero"/>
	<path id="Vector" d="M87.78 341.78C87.05 342.6 86.06 343.25 84.96 343.57C83.86 343.88 82.52 343.93 81.16 343.67C79.81 343.41 78.6 342.98 77.68 342.23C76.76 341.47 75.99 340.55 75.58 339.42C75.17 338.3 75.07 337.15 75.3 335.89C75.46 334.91 75.77 333.77 76.29 332.59L76.54 332.04L79.82 332.72L79.58 333.98L77.12 334.03C76.98 334.2 76.81 334.46 76.58 334.91C76.39 335.26 76.23 335.83 76.18 336.43C76.07 337.21 76.17 337.95 76.5 338.65C76.82 339.35 77.38 339.91 78.26 340.45C79.04 340.96 80.08 341.24 81.34 341.48C82.51 341.69 83.53 341.66 84.59 341.53C85.54 341.38 86.46 341.01 87.11 340.48C87.76 339.94 88.16 339.23 88.32 338.25C88.4 337.56 88.43 337.06 88.41 336.75C88.4 336.44 88.28 336.11 88.07 335.74L86.42 334.69L86.73 333.55L89.24 334.43C89.16 334.71 89.28 335.05 89.34 335.57C89.43 336.01 89.4 336.51 89.49 336.94C89.57 337.37 89.45 337.84 89.36 338.53C89.03 339.77 88.54 340.86 87.78 341.78Z" fill="#313131" fill-opacity="1.000000" fill-rule="nonzero"/>
	<path id="Vector" d="M77.55 324.47L78.43 324.6L78.25 326.39L87.41 328.33L85.49 326.39L80.13 319.76L79.66 319.64L79.13 321.23L78.25 321.09L79.29 316.07L80.17 316.21L80.07 317.71L91.44 320.15L91.94 318.65L92.8 318.88L91.73 323.99L90.88 323.76L91.02 322.07L81.68 320.08L83.53 321.9L88.96 328.65L89.62 328.83L90.17 327.14L91.06 327.27L89.99 332.39L89.11 332.25L89.23 330.66L77.87 328.22L77.39 329.62L76.51 329.49L77.55 324.47Z" fill="#313131" fill-opacity="1.000000" fill-rule="nonzero"/>
	<path id="Vector" d="M82.13 304.71L86.93 305.8L86.6 307.03L82.84 306.64L81.67 310.6L93.13 313.47L94.16 310.38L95.01 310.61L93.22 317.67L92.37 317.44L92.71 315.39L81.45 312.58L80.75 314.43L79.89 314.2L82.13 304.71Z" fill="#313131" fill-opacity="1.000000" fill-rule="nonzero"/>
	<path id="Vector" d="M84.11 301.88L83.44 303.23L82.59 303L84.1 298.11L84.96 298.34L84.74 299.91L89.53 301.4L91.43 295.09L86.63 293.6L85.97 294.95L85.11 294.72L86.6 289.92L87.46 290.15L87.26 291.63L98.38 295.01L98.95 293.64L99.8 293.87L98.31 298.66L97.46 298.43L97.77 296.89L92.6 295.3L90.7 301.61L95.88 303.2L96.47 301.73L97.33 301.96L95.81 306.85L94.96 306.62L95.25 305.17L84.11 301.88Z" fill="#313131" fill-opacity="1.000000" fill-rule="nonzero"/>
	<path id="Vector" d="M88.64 283.44L89.37 281.5L103.02 281.49L103.61 280.42L104.44 280.75L102.79 285.4L101.96 285.07L102.27 283.53L99.33 283.45L97.55 288.58L99.84 290.31L100.53 288.87L101.36 289.19L99.93 293.39L99.1 293.07L99.31 291.9L88.64 283.44ZM91.91 283.4L90.22 283.25L91.68 284.26L96.68 288.04L98.28 283.58L91.91 283.4Z" fill="#313131" fill-opacity="1.000000" fill-rule="nonzero"/>
	<path id="Vector" d="M101.54 274.47C103.03 275.38 104.13 276.18 104.74 276.96C105.05 277.34 105.23 277.8 105.34 278.14C105.43 278.57 105.33 278.95 105.23 279.33C104.98 279.87 104.78 280.23 104.61 280.49L103.21 280.01C103.38 279.75 103.51 279.28 103.76 278.73C103.81 278.54 103.89 278.26 103.82 278.13C103.77 277.92 103.63 277.68 103.49 277.44C102.44 276.04 99.82 274.42 95.58 272.77L94.2 272.2L93.19 274.07L92.36 273.74L96.37 263.71L97.2 264.04L96.74 265.75L107.51 270.06L108.35 268.45L109.18 268.77L107.03 274.11L106.2 273.78L106.71 271.88L95.95 267.57L94.51 271.06L96.07 271.68C98.23 272.77 100.05 273.56 101.54 274.47Z" fill="#313131" fill-opacity="1.000000" fill-rule="nonzero"/>
	<path id="Vector" d="M104.55 258.67C105.22 257.32 105.97 256.41 107 255.97C108.04 255.53 109.04 255.6 110.22 256.12C111.48 256.76 112.37 257.61 112.66 258.81C112.98 259.91 112.84 261.2 112.17 262.55C112.12 262.74 111.97 262.9 111.92 263.09C111.77 263.26 111.72 263.45 111.55 263.71C111.18 264.32 110.94 264.87 110.69 265.41L109.67 267.68L108.87 267.26L109.37 265.77L98.78 260.79L97.93 262.09L97.12 261.67L99.33 256.87L100.13 257.29L99.55 259.07L103.44 260.92L104.55 258.67ZM104.55 245.74L105.36 246.16L104.8 247.84L115.29 252.79L116.2 251.3L117 251.72L114.65 256.7L113.85 256.28L114.4 254.59L103.91 249.64L103 251.13L102.2 250.71L104.55 245.74ZM110.72 263.38C110.87 263.22 110.97 262.84 111.17 262.48C111.61 261.58 111.65 260.68 111.35 259.89C111.06 259.09 110.4 258.51 109.4 258.04C108.5 257.59 107.6 257.56 106.93 257.78C106.23 258.1 105.67 258.67 105.23 259.57L104.46 261.3L110.16 263.95C110.4 263.81 110.58 263.55 110.72 263.38Z" fill="#313131" fill-opacity="1.000000" fill-rule="nonzero"/>
	<path id="Vector" d="M109.61 238.64L108.68 239.82L107.88 239.4L110.39 234.98L111.19 235.4L110.6 236.87L115.04 239.28L118.22 233.51L113.77 231.1L112.84 232.27L112.04 231.85L114.43 227.5L115.23 227.92L114.76 229.32L124.95 235.01L125.87 233.83L126.68 234.25L124.26 238.7L123.46 238.28L124.06 236.81L119.26 234.2L116.08 239.97L120.88 242.58L121.86 241.21L122.66 241.63L120.13 246.14L119.32 245.72L119.9 244.35L109.61 238.64Z" fill="#313131" fill-opacity="1.000000" fill-rule="nonzero"/>
	<path id="Vector" d="M118.03 221.65L119.11 219.9L132.48 222.87L133.23 221.95L134.01 222.46L131.36 226.64L130.58 226.13L131.28 224.68L128.42 223.92L125.56 228.55L127.4 230.78L128.45 229.53L129.23 230.04L126.9 233.8L126.12 233.29L126.62 232.2L118.03 221.65ZM121.13 222.27L119.51 221.84L120.71 223.07L124.83 227.85L127.33 223.83L121.13 222.27Z" fill="#313131" fill-opacity="1.000000" fill-rule="nonzero"/>
	<path id="Vector" d="M127.6 209.13L126.26 210.71L125.48 210.2L128.39 206.19L136.72 208.93L139.02 209.85L137.38 207.99L132.03 200.95L134.94 196.94L135.72 197.46L134.74 199.23L145.07 204.75L146.21 203.53L146.99 204.04L143.77 208.48L142.99 207.96L143.8 206.45L136.48 202.24L133.28 200.47L135.04 202.67L141.17 210.94L140.49 211.98L131.44 209.25L127.88 208.09L130.61 210.45L136.98 215.93L138.18 214.51L138.96 215.03L136.17 218.97L135.39 218.45L136.18 217.03L127.6 209.13Z" fill="#313131" fill-opacity="1.000000" fill-rule="nonzero"/>
	<path id="Vector" d="M139.31 191.29L140.55 189.69L153.51 194.18L154.33 193.38L155.09 193.99L152.01 197.85L151.26 197.24L152.12 195.94L149.44 194.92L146.05 199.21L147.66 201.57L148.77 200.45L149.53 201.05L146.77 204.49L146.02 203.88L146.61 202.82L139.31 191.29ZM142.32 192.2L140.76 191.58L141.81 192.98L145.3 198.19L148.23 194.49L142.32 192.2Z" fill="#313131" fill-opacity="1.000000" fill-rule="nonzero"/>
	<path id="Vector" d="M146.85 184.04L145.69 184.95L144.94 184.34L146.57 182.44C146.86 182.11 147.15 181.78 147.35 181.42C147.79 180.93 148.13 180.41 148.57 179.92C149.74 178.6 150.87 177.78 151.83 177.63C152.79 177.48 153.81 177.86 154.79 178.73C155.55 179.34 156.06 180.09 156.33 180.98C156.6 181.87 156.59 182.68 156.36 183.53C156.13 184.39 155.69 185.29 154.98 186.02C154.72 186.25 154.52 186.6 154.25 186.84C153.99 187.07 153.84 187.24 153.81 187.33L156.97 190.01L158.76 188.25L159.42 188.84L155.43 193.47L154.77 192.89L155.63 191.59L146.85 184.04ZM154.32 185.43C154.93 184.68 155.26 183.85 155.17 183.01C155.09 182.18 154.61 181.33 153.55 180.34C152.73 179.61 151.99 179.31 151.25 179.41C150.51 179.52 149.88 179.96 149.03 180.86C148.74 181.19 148.54 181.54 148.25 181.87C148.08 182.13 147.96 182.2 147.93 182.29L152.99 186.6C153.33 186.49 153.74 186.09 154.32 185.43Z" fill="#313131" fill-opacity="1.000000" fill-rule="nonzero"/>
	<path id="Vector" d="M164.69 182.1C163.59 182.41 162.49 182.32 161.35 182.02C160.23 181.62 159.17 181.03 158.11 180.03C157.15 179.06 156.4 178.04 156.02 176.82C155.61 175.69 155.63 174.48 155.84 173.31C156.14 172.17 156.64 171.08 157.59 170.21C158.29 169.49 159.09 168.78 160.32 167.99L160.83 167.62L163.13 170.07L162.28 170.96L160.17 169.68C159.96 169.73 159.62 169.84 159.26 170.05C158.9 170.26 158.49 170.66 158.07 171.06C157.51 171.62 157.22 172.35 157.13 173.05C157.02 173.83 157.23 174.6 157.59 175.51C157.98 176.33 158.66 177.22 159.55 178.07C160.35 178.9 161.32 179.46 162.22 179.91C163.12 180.35 164 180.49 164.84 180.41C165.67 180.32 166.4 179.91 167.08 179.27C167.51 178.78 167.83 178.36 168 178.1C168.17 177.84 168.28 177.46 168.26 177.15L167.43 175.29L168.35 174.52L170.01 176.7C169.86 176.86 169.66 177.22 169.42 177.76C169.19 178.21 169 178.57 168.8 178.92C168.6 179.28 168.29 179.7 167.85 180.19C166.78 181.13 165.7 181.76 164.69 182.1Z" fill="#313131" fill-opacity="1.000000" fill-rule="nonzero"/>
	<path id="Vector" d="M175.76 152.57L176.39 153.25L175.2 154.66L181.48 161.64L181.09 158.89L180.71 150.44L180.41 150.05L179.03 151L178.4 150.33L182.27 146.88L182.91 147.56L181.98 148.74L189.73 157.44L190.99 156.55L191.62 157.23L187.75 160.67L187.11 159.99L188.25 158.77L181.91 151.67L182.34 154.23L182.67 162.88L183.14 163.41L184.54 162.36L185.18 163.04L181.27 166.58L180.64 165.9L181.66 164.75L173.91 156.05L172.68 156.84L172.05 156.16L175.76 152.57Z" fill="#313131" fill-opacity="1.000000" fill-rule="nonzero"/>
	<path id="Vector" d="M185.44 144.57C185.76 144.15 186.07 143.72 186.37 143.39C186.66 143.07 186.92 142.83 187.19 142.6C188.38 141.59 189.53 141.09 190.49 140.93C191.45 140.78 192.25 141.2 192.95 142C193.56 142.78 193.86 143.57 193.72 144.45C193.59 145.33 193.29 146.07 192.68 146.82C193.57 146.14 194.49 145.77 195.37 145.91C196.27 145.95 196.98 146.34 197.59 147.12C198.43 148.16 198.75 149.26 198.56 150.33C198.38 151.4 197.57 152.51 196.15 153.65C195.61 154.12 195.01 154.47 194.53 154.75C194.05 155.03 193.59 155.21 193.25 155.32C192.92 155.44 192.7 155.48 192.68 155.58L190.86 152.85L191.63 152.24L193.57 153.78C194.21 153.64 195.03 153.25 195.83 152.55C196.48 152.01 196.85 151.4 196.81 150.78C196.8 150.06 196.57 149.39 195.87 148.59C195.43 147.96 194.82 147.59 194.12 147.51C193.43 147.43 192.64 147.72 191.75 148.4L190.71 149.24L190 148.44L190.8 147.74C191.19 147.44 191.51 147.01 191.73 146.56C191.95 146.11 192.08 145.64 192.02 145.11C191.95 144.59 191.68 144.1 191.3 143.6C190.76 142.94 190.25 142.6 189.62 142.64C189 142.67 188.43 142.93 187.8 143.37C187.39 143.77 187.09 144.1 186.8 144.43C186.51 144.76 186.53 145.07 186.57 145.28L187.38 146.82L186.46 147.6L184.49 145.44C184.73 145.3 185.03 144.97 185.44 144.57Z" fill="#313131" fill-opacity="1.000000" fill-rule="nonzero"/>
	<path id="Vector" d="M198.63 135.27L197.21 136.01L196.69 135.26L198.72 133.77C199.08 133.56 199.5 133.16 200 132.79C200.42 132.39 200.8 132.09 201.04 131.95C202.45 130.9 203.6 130.39 204.51 130.43C205.41 130.47 206.22 130.89 206.82 131.66C207.34 132.41 207.54 133.18 207.53 133.99C207.51 134.8 207.12 135.51 206.53 136.17C207.45 135.4 208.44 135.15 209.34 135.19C210.25 135.23 211.03 135.74 211.54 136.49C212.29 137.51 212.51 138.58 212.3 139.75C212.09 140.92 211.06 142.07 209.4 143.35C209.01 143.66 208.65 143.87 208.29 144.07C207.44 144.56 207.03 144.96 206.82 145L204.79 146.5L204.27 145.75L205.36 144.72L198.63 135.27ZM204.03 137.53L204.9 136.95C205.65 136.44 206.01 135.83 206.07 135.23C206.13 134.63 205.93 133.87 205.42 133.12C204.9 132.37 204.38 132.03 203.79 131.97C203.19 131.91 202.4 132.21 201.63 132.82C201.24 133.12 200.88 133.33 200.59 133.66L200.32 133.89L203.38 138.07C203.28 138.05 203.64 137.84 204.03 137.53ZM208.81 142.48C209.83 141.74 210.44 140.98 210.55 140.2C210.66 139.41 210.45 138.64 209.94 137.9C209.33 137.12 208.75 136.66 208.15 136.6C207.46 136.52 206.76 136.84 205.87 137.52C204.85 138.26 204.22 138.71 203.96 138.94L207.22 143.48C207.44 143.44 207.95 143.07 208.81 142.48Z" fill="#313131" fill-opacity="1.000000" fill-rule="nonzero"/>
	<path id="Vector" d="M211.19 124.89L212.92 123.72L223.86 131.95L224.92 131.42L225.43 132.17L221.33 134.94L220.82 134.19L222 133.18L219.74 131.36L215.16 134.4L215.94 137.16L217.36 136.42L217.88 137.17L214.16 139.64L213.65 138.89L214.47 138.09L211.19 124.89ZM213.85 126.72L212.51 125.65L213.08 127.33L214.81 133.4L218.77 130.79L213.85 126.72Z" fill="#313131" fill-opacity="1.000000" fill-rule="nonzero"/>
	<path id="Vector" d="M227.76 129.94C226.64 129.94 225.62 129.57 224.55 128.98C223.61 128.32 222.74 127.37 221.95 126.14C221.26 124.94 220.87 123.71 220.77 122.57C220.67 121.42 221 120.18 221.57 119.21C222.16 118.15 222.98 117.35 224.09 116.63C224.94 116.14 225.97 115.71 227.31 115.25L227.89 115L229.44 117.96L228.36 118.59L226.69 116.82C226.5 116.77 226.17 116.88 225.73 116.97C225.3 117.06 224.82 117.34 224.34 117.61C223.62 118.03 223.15 118.62 222.88 119.26C222.58 120 222.47 120.78 222.62 121.74C222.77 122.7 223.21 123.73 223.86 124.72C224.51 125.71 225.19 126.6 225.94 127.21C226.7 127.82 227.5 128.24 228.36 128.47C229.21 128.7 229.98 128.5 230.82 128.01C231.43 127.66 231.81 127.36 231.98 127.1C232.25 126.86 232.45 126.51 232.52 126.22L232.25 124.22L233.31 123.68L234.27 126.18C234.03 126.32 233.76 126.56 233.44 126.98C233.15 127.31 232.86 127.64 232.47 127.94C232.18 128.27 231.7 128.55 231.22 128.83C230.08 129.64 228.88 129.93 227.76 129.94Z" fill="#313131" fill-opacity="1.000000" fill-rule="nonzero"/>
	<path id="Vector" d="M237.51 112.18C237.6 111.08 237.88 110.04 238.42 109.16C238.96 108.29 239.64 107.66 240.6 107.1C241.69 106.47 242.76 106.25 243.77 106.32C244.77 106.38 245.79 106.76 246.61 107.49C247.43 108.22 248.2 109.14 248.93 110.25C249.69 111.57 250.05 112.89 250.13 114.13C250.2 115.38 250.01 116.45 249.45 117.42C248.88 118.39 248.18 119.11 247.22 119.67C246.13 120.3 245.05 120.52 243.96 120.43C242.96 120.36 241.94 119.99 241.09 119.35C240.24 118.72 239.37 117.77 238.77 116.59L236.15 118.03L238.74 122.8L240.23 122.18L240.62 123L236.09 125.45L235.7 124.63L236.96 123.75L231.45 113.51L229.98 114.03L229.5 113.19L233.9 110.81L234.39 111.65L233.14 112.54L235.52 116.94L238.24 115.53C237.71 114.47 237.49 113.4 237.51 112.18ZM239.27 110.92C239.13 112.21 239.54 113.74 240.58 115.55C241.48 117.12 242.39 118.28 243.55 118.89C244.71 119.51 245.71 119.57 246.89 118.97C247.95 118.44 248.52 117.47 248.54 116.26C248.56 115.04 248.16 113.5 247.21 111.72C246.3 110.16 245.39 109 244.33 108.4C243.26 107.81 242.17 107.72 241.11 108.26C240.05 108.79 239.41 109.63 239.27 110.92Z" fill="#313131" fill-opacity="1.000000" fill-rule="nonzero"/>
	<path id="Vector" d="M258.23 107.45C258.94 107.84 259.82 108.38 260.98 109C261.75 109.51 262.27 109.85 262.72 110.07C263.17 110.3 263.36 110.35 263.58 110.3L264.32 110.2L264.71 111.01L262.62 111.98C262.38 112.12 262 112.02 261.45 111.77C260.91 111.52 260.22 111.03 259.28 110.37C258.27 109.59 257.39 109.05 256.78 108.69C256.17 108.32 255.66 108.29 255.33 108.4L254.27 108.93L256.55 113.72L258.11 113.22L258.5 114.04L253.84 116.25L253.44 115.43L254.77 114.67L249.84 104.18L248.4 104.61L248.01 103.79L252.55 101.65L252.95 102.46L251.6 103.32L253.85 108.21L255.27 107.47L256.41 100.95L254.85 101.45L254.46 100.63L258.64 98.69L259.03 99.51L257.8 100.3L256.43 106.96C256.83 106.97 257.5 107.15 258.23 107.45Z" fill="#313131" fill-opacity="1.000000" fill-rule="nonzero"/>
	<path id="Vector" d="M267.44 109.2C266.37 109.01 265.49 108.47 264.7 107.65C263.9 106.82 263.15 105.81 262.6 104.44C262.05 103.07 261.76 101.87 261.88 100.68C261.99 99.49 262.27 98.44 262.93 97.5C263.59 96.56 264.49 95.88 265.52 95.44C267.35 94.71 268.88 94.71 270.32 95.41C271.76 96.1 272.91 97.53 273.71 99.47C274.26 100.84 274.53 102.13 274.41 103.33C274.29 104.52 273.99 105.66 273.33 106.6C272.67 107.55 271.78 108.22 270.74 108.66C269.56 109.26 268.51 109.38 267.44 109.2ZM263.84 99.07C263.6 100.33 263.91 101.84 264.62 103.76C265.38 105.49 266.26 106.75 267.3 107.43C268.31 108.21 269.41 108.3 270.57 107.8C271.69 107.39 272.35 106.44 272.59 105.18C272.83 103.92 272.54 102.32 271.71 100.46C270.96 98.73 270.07 97.48 269.03 96.79C267.99 96.11 266.92 95.92 265.77 96.43C264.71 96.96 264.07 97.81 263.84 99.07Z" fill="#313131" fill-opacity="1.000000" fill-rule="nonzero"/>
	<path id="Vector" d="M274.8 93.14L273.29 93.45L273.02 92.56L275.39 91.67C275.82 91.58 276.31 91.31 276.88 91.05C277.46 90.8 277.82 90.59 278.13 90.57C279.72 89.98 280.99 89.81 281.84 90.04C282.7 90.27 283.35 90.85 283.7 91.86C283.99 92.65 284.07 93.49 283.78 94.22C283.48 94.96 282.99 95.64 282.26 96.06C283.39 95.65 284.33 95.59 285.18 95.82C286.04 96.05 286.67 96.73 287.01 97.74C287.42 98.87 287.4 100.08 286.84 101.05C286.25 102.12 284.99 103 283.07 103.71C282.61 103.89 282.28 104.01 281.84 104.1C280.96 104.37 280.38 104.62 280.16 104.66L277.79 105.55L277.49 104.76L278.91 104.02L274.8 93.14ZM279.41 96.82L280.42 96.48C281.21 96.18 281.75 95.72 282.02 95.08C282.29 94.44 282.28 93.72 281.89 92.9C281.59 92.11 281.12 91.58 280.58 91.33C280.03 91.08 279.2 91.16 278.19 91.5C277.73 91.69 277.37 91.9 276.92 92.08L276.55 92.29L278.41 97.16C278.53 97.09 278.86 96.98 279.41 96.82ZM282.58 102.87C283.71 102.46 284.48 101.85 284.88 101.14C285.27 100.43 285.26 99.71 284.92 98.71C284.55 97.79 284.08 97.26 283.54 97.01C282.9 96.74 282.06 96.82 281.03 97.26C279.81 97.64 279.11 97.96 278.77 98.08L280.74 103.29C281 103.46 281.67 103.23 282.58 102.87Z" fill="#313131" fill-opacity="1.000000" fill-rule="nonzero"/>
	<path id="Vector" d="M302.32 82.79L302.59 83.68L301.17 84.42L304.52 95.5L306.24 95.15L306.51 96.04L301.52 97.55L301.25 96.67L302.65 96.02L299.23 84.82L293.48 86.53L296.89 97.74L298.62 97.38L298.89 98.27L293.9 99.79L293.63 98.9L295.02 98.26L291.68 87.17L290.07 87.46L289.8 86.57L302.32 82.79Z" fill="#313131" fill-opacity="1.000000" fill-rule="nonzero"/>
	<path id="Vector" d="M310.12 94.36C309.1 93.98 308.25 93.35 307.58 92.45C306.9 91.56 306.39 90.4 306.06 88.99C305.73 87.58 305.65 86.33 305.89 85.07C306.1 83.91 306.66 82.94 307.39 82.12C308.12 81.29 309.09 80.74 310.28 80.45C312.15 79.93 313.73 80.15 315.09 81.12C316.37 82.08 317.3 83.55 317.83 85.73C318.17 87.14 318.22 88.48 318.01 89.64C317.77 90.91 317.2 91.87 316.38 92.67C315.55 93.47 314.59 94.03 313.49 94.34C312.17 94.7 311.14 94.73 310.12 94.36ZM307.99 83.7C307.56 84.91 307.65 86.46 308.15 88.43C308.57 90.27 309.33 91.6 310.23 92.45C311.12 93.3 312.26 93.6 313.36 93.29C314.56 93 315.26 92.27 315.72 90.97C316.14 89.76 316.07 88.11 315.58 86.14C315.16 84.3 314.39 82.97 313.5 82.12C312.61 81.27 311.56 80.99 310.37 81.28C309.21 81.79 308.39 82.59 307.99 83.7Z" fill="#313131" fill-opacity="1.000000" fill-rule="nonzero"/>
	<path id="Vector" d="M324.05 86.48C324.19 88.24 324.04 89.53 323.67 90.55C323.54 91.03 323.23 91.45 322.96 91.68C322.69 91.92 322.33 92.13 321.9 92.22C321.35 92.37 320.85 92.34 320.63 92.39L320.2 90.95C320.51 90.93 320.94 90.84 321.59 90.71C321.81 90.66 322.02 90.62 322.17 90.45C322.31 90.29 322.46 90.12 322.54 89.84C323.18 88.18 322.97 85.17 322.05 80.64L321.71 79.23L319.51 79.46L319.34 78.59L329.9 76.43L330.07 77.29L328.39 77.86L330.73 89.29L332.62 89.08L332.8 89.94L327.19 91.09L327.02 90.23L328.91 89.61L326.57 78.19L322.91 78.94L323.29 80.57C323.61 82.79 323.89 84.8 324.05 86.48Z" fill="#313131" fill-opacity="1.000000" fill-rule="nonzero"/>
	<path id="Vector" d="M333.66 76.83L332.13 76.83L331.98 75.87L341.36 74.31L342.13 77.16L341.08 77.29L340.22 75.53L335.68 76.15L336.52 81.36L339.63 80.77L339.64 79.25L340.69 79.12L341.38 83.38L340.33 83.5L339.83 81.95L336.74 82.44L337.6 87.97L342.78 86.91L343.34 84.41L344.51 84.63L344.55 87.9L334.33 89.54L334.15 88.68L335.69 88.27L333.66 76.83Z" fill="#313131" fill-opacity="1.000000" fill-rule="nonzero"/>
	<path id="Vector" d="M349.07 74.44L345.89 74.91L345.75 78.85L344.48 79.02L344.19 74.05L355.76 72.67L356.58 77.57L355.44 77.67L354.33 73.81L351.11 74.07L352.56 85.76L355.23 85.66L355.29 86.6L348.23 87.46L348.18 86.52L350.55 86.04L349.07 74.44Z" fill="#313131" fill-opacity="1.000000" fill-rule="nonzero"/>
	<path id="Vector" d="M364.35 79.76L363.42 79.81C363.15 80.05 362.84 80.47 362.59 81.01C362.31 81.65 362.02 82.39 361.76 83.34C361.41 84.26 361.23 84.93 361.01 85.38C360.79 85.83 360.62 86.09 360.4 86.13L357.89 86.38L357.84 85.45L358.51 85.22C358.72 85.17 358.87 85.01 359.07 84.65C359.26 84.3 359.51 83.76 359.81 83.02C360.13 82.19 360.53 81.48 360.78 80.94C361.12 80.42 361.44 79.99 361.8 79.78C360.92 79.65 360.21 79.26 359.67 78.6C359.13 77.95 358.83 77.16 358.78 76.23C358.66 74.77 359.06 73.65 359.83 73.05C360.73 72.37 361.95 71.98 363.6 71.92C363.91 71.9 364.44 71.83 365.03 71.89C365.65 71.85 366.06 71.86 366.37 71.84L369.07 71.65L369.13 72.58L367.62 72.89L368.52 84.34L370.24 84.39L370.3 85.32L364.77 85.78L364.72 84.85L366.54 84.52L366.15 79.52L364.35 79.76ZM365.11 72.73C364.52 72.67 364.09 72.76 363.59 72.73C362.65 72.78 361.86 73.08 361.45 73.48C360.92 73.95 360.71 74.71 360.84 75.76C360.87 76.79 361.29 77.51 361.75 78.04C362.34 78.51 363.1 78.71 364.04 78.65C365.06 78.62 365.71 78.49 366.02 78.47L365.61 72.76L365.11 72.73Z" fill="#313131" fill-opacity="1.000000" fill-rule="nonzero"/>
	<path id="Vector" d="M375.84 72.24L372.61 72.5L372.07 76.43L370.83 76.5L370.96 71.44L382.59 70.99L382.98 75.99L381.86 75.99L381.07 72.11L377.8 72.15L378.19 83.97L380.82 84.07L380.87 85L373.78 85.24L373.73 84.31L376.14 84.04L375.84 72.24Z" fill="#313131" fill-opacity="1.000000" fill-rule="nonzero"/>
	<path id="Vector" d="M391.67 84.23C390.73 83.57 390.03 82.77 389.5 81.71C388.97 80.65 388.8 79.38 388.77 77.95C388.84 76.54 389.17 75.31 389.77 74.24C390.36 73.18 391.18 72.38 392.24 71.85C393.3 71.32 394.4 71 395.71 71.05C396.62 71.09 397.81 71.2 399.14 71.56L399.71 71.71L399.42 75.1L398.2 75.08L397.81 72.73C397.64 72.58 397.39 72.41 396.91 72.29C396.43 72.16 395.93 72.13 395.34 72.07C394.53 72.05 393.86 72.28 393.23 72.72C392.6 73.17 392.11 73.85 391.69 74.66C391.34 75.58 391.09 76.53 391.04 77.84C391.02 79.06 391.15 80.11 391.42 81C391.69 81.89 392.18 82.73 392.83 83.31C393.49 83.9 394.23 84.2 395.13 84.24C395.85 84.22 396.26 84.23 396.69 84.14C397.02 84.03 397.36 83.92 397.63 83.68L398.42 81.86L399.59 82.07L399.09 84.68C398.78 84.7 398.44 84.82 397.92 84.88C397.48 84.97 397.03 85.15 396.62 85.14C396.19 85.23 395.69 85.2 395.07 85.24C393.76 85.19 392.62 84.89 391.67 84.23Z" fill="#313131" fill-opacity="1.000000" fill-rule="nonzero"/>
	<path id="Vector" d="M407.28 71.6L407.24 72.51L405.38 72.62L404.69 82.01L406.4 79.82L412.23 73.64L412.27 73.14L410.62 72.8L410.66 71.9L415.76 72.24L415.73 73.15L414.27 73.27L413.5 84.88L415.05 85.19L415.01 86.1L409.81 85.72L409.85 84.82L411.5 84.75L412.11 75.24L410.55 77.26L404.6 83.51L404.51 84.2L406.28 84.47L406.24 85.38L400.94 84.98L400.98 84.07L402.54 83.98L403.3 72.37L401.85 72.08L401.89 71.18L407.28 71.6Z" fill="#313131" fill-opacity="1.000000" fill-rule="nonzero"/>
	<path id="Vector" d="M427.56 73.47L427.16 78.35L425.88 78.21L425.78 74.42L421.66 73.82L420.34 85.59L423.55 86.15L423.42 87.03L416.1 86.19L416.24 85.31L418.26 85.34L419.51 73.86L417.61 73.35L417.74 72.47L427.56 73.47Z" fill="#313131" fill-opacity="1.000000" fill-rule="nonzero"/>
	<path id="Vector" d="M430.71 75.03L429.31 74.55L429.44 73.67L434.44 74.4L434.3 75.28L432.68 75.25L431.95 80.25L438.4 81.26L439.13 76.26L437.64 75.76L437.77 74.88L442.77 75.61L442.64 76.49L441.11 76.49L439.37 87.94L440.79 88.32L440.66 89.2L435.66 88.47L435.79 87.59L437.32 87.59L438.15 82.21L431.7 81.2L430.87 86.58L432.48 87.01L432.35 87.89L427.26 87.14L427.39 86.26L428.92 86.26L430.71 75.03Z" fill="#313131" fill-opacity="1.000000" fill-rule="nonzero"/>
	<path id="Vector" d="M449.53 77.01L451.55 77.45L453.42 90.99L454.53 91.39L454.4 92.27L449.57 91.29L449.71 90.4L451.3 90.53L450.97 87.59L445.67 86.47L444.26 89.05L445.76 89.55L445.62 90.43L441.27 89.57L441.41 88.69L442.62 88.71L449.53 77.01ZM450.12 80.13L449.95 78.45L449.24 79.99L446.23 85.5L450.87 86.44L450.12 80.13Z" fill="#313131" fill-opacity="1.000000" fill-rule="nonzero"/>
	<path id="Vector" d="M460.22 88.43C459.59 90 458.86 91.23 458.15 91.95C457.74 92.35 457.38 92.56 457.04 92.68C456.71 92.79 456.3 92.78 455.83 92.65C455.26 92.5 454.78 92.37 454.52 92.2L454.71 90.73C455 90.8 455.47 90.93 456.04 91.08C456.23 91.13 456.45 91.09 456.66 91.05C456.88 91 457.03 90.84 457.29 90.6C458.53 89.41 459.79 86.59 460.9 82.1L461.28 80.67L459.28 80.14L459.54 79.19L470.04 81.8L469.79 82.75L468 82.57L465.18 93.84L466.94 94.51L466.71 95.37L461.08 93.96L461.31 93.11L463.26 93.42L466.07 82.16L462.34 81.26L461.91 82.88C461.47 84.9 460.84 86.87 460.22 88.43Z" fill="#313131" fill-opacity="1.000000" fill-rule="nonzero"/>
	<path id="Vector" d="M476.29 89.28C477.69 89.75 478.73 90.44 479.31 91.31C479.89 92.18 479.99 93.32 479.56 94.53C479.09 95.93 478.33 96.85 477.3 97.29C476.14 97.79 474.93 97.77 473.5 97.39C473.31 97.34 473.12 97.29 472.93 97.24C472.74 97.19 472.55 97.14 472.29 96.97C471.65 96.69 470.99 96.51 470.44 96.27L468 95.51L468.23 94.65L469.77 94.97L473.16 83.85L471.81 83.19L472.04 82.33L477.12 83.9L476.89 84.75L475.03 84.46L473.72 88.59L476.29 89.28ZM472.45 95.99C472.64 96.04 473 96.24 473.38 96.34C474.42 96.62 475.23 96.63 475.96 96.22C476.68 95.8 477.17 95.11 477.45 94.07C477.73 93.02 477.72 92.31 477.3 91.58C476.95 90.98 476.27 90.49 475.25 90.12L473.44 89.63L471.62 95.67C472 95.77 472.26 95.94 472.45 95.99ZM489.09 87.51L488.86 88.37L487.09 88.1L483.71 99.21L485.34 99.95L485.11 100.81L479.84 99.19L480.07 98.34L481.81 98.7L485.19 87.59L483.56 86.84L483.79 85.99L489.09 87.51Z" fill="#313131" fill-opacity="1.000000" fill-rule="nonzero"/>
	<path id="Vector" d="M496.77 91.51L495.45 90.74L495.77 89.91L500.49 91.69L500.17 92.52L498.62 92.21L496.85 96.92L503.04 99.3L504.81 94.58L503.49 93.81L503.81 92.99L508.53 94.76L508.21 95.59L506.76 95.3L502.61 106.21L503.96 106.88L503.64 107.71L498.92 105.93L499.24 105.1L500.76 105.51L502.73 100.44L496.54 98.07L494.57 103.14L495.99 103.93L495.67 104.76L490.88 102.86L491.2 102.03L492.72 102.44L496.77 91.51Z" fill="#313131" fill-opacity="1.000000" fill-rule="nonzero"/>
	<path id="Vector" d="M514.77 97.35L516.69 98.17L515.67 111.85L516.61 112.51L516.29 113.34L511.74 111.3L512.06 110.47L513.56 110.98L513.94 108.02L508.92 105.86L507.02 108L508.44 108.79L508.12 109.62L504.02 107.81L504.34 106.98L505.48 107.28L514.77 97.35ZM514.71 100.59L514.95 98.92L513.88 100.27L509.77 104.97L514.15 106.86L514.71 100.59Z" fill="#313131" fill-opacity="1.000000" fill-rule="nonzero"/>
	<path id="Vector" d="M528.48 105.09L526.76 103.92L527.17 103.12L531.55 105.41L530.04 114.07L529.5 116.47L531.11 114.66L537.28 108.37L541.65 110.66L541.23 111.47L539.29 110.74L535.24 121.68L536.61 122.65L536.19 123.46L531.46 120.97L531.88 120.16L533.44 120.79L536.55 112.96L537.88 109.55L535.91 111.57L528.68 118.8L527.61 118.21L529.11 108.83L529.76 105.24L527.83 108.28L523.27 115.41L524.83 116.44L524.41 117.25L520.13 114.98L520.54 114.17L522.01 114.77L528.48 105.09Z" fill="#313131" fill-opacity="1.000000" fill-rule="nonzero"/>
	<path id="Vector" d="M547.85 114.15L549.59 115.23L547.01 128.7L547.95 129.36L547.53 130.16L543.3 127.71L543.72 126.9L545.19 127.5L545.83 124.72L541.18 121.94L539.02 123.91L540.29 124.86L539.87 125.67L536.09 123.43L536.51 122.63L537.63 123.03L547.85 114.15ZM547.41 117.3L547.84 115.68L546.61 116.88L541.91 121.12L546.04 123.55L547.41 117.3Z" fill="#313131" fill-opacity="1.000000" fill-rule="nonzero"/>
	<path id="Vector" d="M556.12 120.55L555.06 119.55L555.57 118.77L557.65 120.14C558.01 120.34 558.43 120.66 558.78 120.85C559.4 121.22 559.94 121.47 560.46 121.81C561.93 122.82 562.89 123.79 563.13 124.77C563.38 125.75 563.19 126.82 562.51 127.86C561.97 128.74 561.32 129.27 560.5 129.67C559.68 130.06 558.84 130.14 557.96 130C557.08 129.87 556.16 129.52 555.28 128.98C554.93 128.78 554.67 128.61 554.34 128.32C553.98 128.12 553.82 127.98 553.75 127.86L551.5 131.33L553.52 132.89L553.01 133.67L547.88 130.36L548.4 129.58L549.84 130.27L556.12 120.55ZM555.8 128.2C556.67 128.74 557.43 128.95 558.29 128.77C559.15 128.59 559.93 127.99 560.67 126.76C561.21 125.88 561.43 125.03 561.21 124.36C560.98 123.68 560.44 123.03 559.5 122.37C559.14 122.17 558.79 121.98 558.34 121.75C558.08 121.58 557.89 121.53 557.89 121.53L554.26 127.08C554.59 127.37 555.02 127.69 555.8 128.2Z" fill="#313131" fill-opacity="1.000000" fill-rule="nonzero"/>
	<path id="Vector" d="M560.53 137.92C560.09 136.89 559.99 135.74 560.17 134.67C560.36 133.6 560.91 132.32 561.74 131.12C562.54 130.01 563.49 129.14 564.55 128.61C565.61 128.08 566.78 127.89 567.97 128C569.16 128.12 570.28 128.52 571.29 129.3C572.07 129.81 572.96 130.66 573.83 131.61L574.32 132.05L572.2 134.64L571.16 133.95L572.16 131.77C572.11 131.56 571.88 131.29 571.67 130.93C571.46 130.57 570.94 130.22 570.42 129.88C569.74 129.39 569.07 129.21 568.26 129.2C567.45 129.19 566.66 129.48 565.91 130C565.16 130.51 564.34 131.31 563.68 132.25C563.02 133.19 562.55 134.19 562.2 135.11C561.94 136.06 561.81 136.94 562.08 137.83C562.35 138.72 562.79 139.35 563.57 139.86C564.09 140.2 564.52 140.52 564.9 140.62C565.28 140.72 565.56 140.8 565.87 140.78L567.58 139.71L568.48 140.56L566.53 142.49C566.27 142.32 565.89 142.21 565.45 141.99C564.97 141.86 564.62 141.67 564.14 141.54C563.78 141.34 563.34 141.12 562.82 140.78C561.83 139.9 560.96 138.96 560.53 137.92Z" fill="#313131" fill-opacity="1.000000" fill-rule="nonzero"/>
	<path id="Vector" d="M587.78 141.87L587.18 142.62L585.62 141.59L579.7 148.87L582.36 148.05L590.64 146.4L590.96 145.98L589.86 144.77L590.47 144.01L594.47 147.32L593.86 148.08L592.54 147.32L585.13 156.33L586.26 157.45L585.67 158.11L581.67 154.79L582.26 154.14L583.65 155.02L589.69 147.67L587.25 148.44L578.74 150.14L578.31 150.63L579.5 151.87L578.92 152.53L574.82 149.19L575.41 148.53L576.7 149.39L584.11 140.37L583.08 139.28L583.69 138.53L587.78 141.87Z" fill="#313131" fill-opacity="1.000000" fill-rule="nonzero"/>
	<path id="Vector" d="M597.26 150.21C597.81 150.46 598.14 150.75 598.49 150.95C598.85 151.14 599.18 151.44 599.43 151.61C600.59 152.63 601.33 153.64 601.58 154.63C601.83 155.61 601.6 156.47 600.89 157.19C600.19 157.92 599.46 158.34 598.56 158.3C597.72 158.38 596.87 158.15 596.09 157.64C596.89 158.46 597.37 159.31 597.45 160.14C597.53 160.98 597.21 161.81 596.63 162.47C595.75 163.46 594.69 163.99 593.59 163.9C592.47 163.9 591.32 163.28 589.9 162.09C589.31 161.63 588.94 161.12 588.57 160.61C588.19 160.11 587.99 159.74 587.75 159.48C587.61 159.24 587.47 159 587.4 158.88L589.83 156.67L590.49 157.26L589.3 159.39C589.53 160.06 590.07 160.71 590.8 161.41C591.46 162 592 162.25 592.74 162.14C593.39 162.01 594.09 161.69 594.7 160.93C595.25 160.37 595.43 159.7 595.52 159.01C595.6 158.32 595.09 157.57 594.26 156.84L593.28 155.97L593.98 155.24L594.8 155.97C595.23 156.29 595.65 156.6 596.13 156.73C596.6 156.86 597.1 156.89 597.65 156.73C598.21 156.58 598.59 156.27 599.03 155.78C599.61 155.12 599.86 154.57 599.73 153.93C599.69 153.31 599.32 152.8 598.66 152.22C598.26 151.8 597.91 151.61 597.46 151.38C597.1 151.19 596.79 151.21 596.58 151.25L595.18 152.3L594.26 151.55L596.09 149.28C596.39 149.67 596.74 149.87 597.26 150.21Z" fill="#313131" fill-opacity="1.000000" fill-rule="nonzero"/>
	<path id="Vector" d="M608.4 161.85L607.52 160.6L608.2 159.97L609.96 161.76C610.28 162.05 610.68 162.47 611.18 162.9C611.67 163.34 612 163.63 612.17 163.78C613.36 165.02 614.11 166.03 614.16 166.96C614.34 167.83 614.02 168.66 613.31 169.38C612.63 170.02 611.94 170.34 611.19 170.45C610.45 170.55 609.6 170.32 608.82 169.81C609.71 170.66 610.2 171.5 610.25 172.43C610.31 173.37 610.01 174.1 609.31 174.83C608.46 175.72 607.33 176.13 606.23 176.04C605.04 175.93 603.72 175.16 602.26 173.76C601.93 173.46 601.63 173.08 601.39 172.81C600.76 172.13 600.36 171.72 600.2 171.57L598.44 169.78L599.12 169.14L600.39 170.1L608.4 161.85ZM602.87 173C603.76 173.85 604.54 174.37 605.35 174.38C606.16 174.39 606.86 174.07 607.54 173.44C608.22 172.81 608.52 172.07 608.48 171.45C608.44 170.83 608.03 170.11 607.23 169.28C606.34 168.43 605.77 167.87 605.54 167.61L601.63 171.55C601.67 171.76 602.17 172.2 602.87 173ZM607.09 167.51L607.82 168.22C608.48 168.8 609.09 169.17 609.71 169.13C610.33 169.09 611.03 168.77 611.61 168.11C612.2 167.46 612.54 166.94 612.5 166.31C612.47 165.69 612.05 164.97 611.32 164.27C610.99 163.97 610.66 163.68 610.24 163.37L609.91 163.07L606.27 166.78C606.46 166.83 606.69 167.1 607.09 167.51Z" fill="#313131" fill-opacity="1.000000" fill-rule="nonzero"/>
	<path id="Vector" d="M620.7 172.59L622.13 174.09L615.75 186.13L616.4 187.12L615.72 187.75L612.42 184.12L613.1 183.48L614.25 184.51L615.75 181.95L612.05 177.91L609.38 179.13L610.36 180.41L609.68 181.04L606.68 177.79L607.36 177.16L608.28 177.91L620.7 172.59ZM619.22 175.45L620.13 173.96L618.59 174.77L612.89 177.42L616.12 180.93L619.22 175.45Z" fill="#313131" fill-opacity="1.000000" fill-rule="nonzero"/>
	<path id="Vector" d="M618.15 189.73C617.95 188.55 618.14 187.48 618.63 186.39C619.13 185.3 619.91 184.29 621.07 183.38C622.14 182.44 623.29 181.94 624.49 181.65C625.69 181.36 626.88 181.47 627.99 181.87C629.11 182.27 630.05 182.93 630.89 183.97C631.5 184.75 632.15 185.74 632.75 186.92L633.01 187.49L630.32 189.53L629.55 188.61L631.09 186.67C631.04 186.46 631.02 186.15 630.82 185.79C630.61 185.43 630.33 184.94 629.93 184.53C629.39 183.88 628.78 183.51 628.02 183.31C627.26 183.1 626.42 183.18 625.53 183.45C624.65 183.73 623.68 184.28 622.76 185.05C621.84 185.83 621.11 186.65 620.6 187.43C620.06 188.3 619.83 189.16 619.82 189.97C619.8 190.78 620.1 191.57 620.71 192.35C621.17 192.88 621.5 193.17 621.86 193.37C622.21 193.57 622.47 193.74 622.78 193.72L624.68 193.11L625.33 194.1L623.02 195.51C622.85 195.37 622.52 195.07 622.1 194.76C621.65 194.53 621.32 194.24 620.99 193.95C620.66 193.66 620.24 193.34 619.86 192.83C618.87 191.96 618.34 190.9 618.15 189.73Z" fill="#313131" fill-opacity="1.000000" fill-rule="nonzero"/>
	<path id="Vector" d="M637.17 196.66C638.32 196.56 639.3 196.72 640.22 197.07C641.14 197.42 641.97 198.15 642.58 198.92C643.32 199.93 643.69 200.85 643.81 201.9C643.84 202.93 643.68 203.9 643.12 204.87C642.55 205.84 641.8 206.76 640.66 207.57C639.5 208.49 638.23 209.06 637.03 209.35C635.83 209.64 634.74 209.55 633.62 209.15C632.51 208.75 631.75 208.14 631.08 207.25C630.33 206.23 629.89 205.2 629.77 204.15C629.64 203.09 629.9 202.14 630.37 201.15C630.93 200.18 631.69 199.26 632.73 198.42L630.93 196L626.58 199.32L627.41 200.76L626.67 201.28L623.58 197.19L624.33 196.68L625.46 197.8L634.67 190.79L633.9 189.47L634.68 188.86L637.69 192.82L636.92 193.43L635.79 192.31L631.82 195.33L633.62 197.74C634.99 197.19 636.09 196.88 637.17 196.66ZM638.79 198.21C637.55 198.29 636.06 198.91 634.39 200.19C632.96 201.34 631.97 202.39 631.54 203.6C631.12 204.81 631.24 205.86 631.99 206.88C632.76 207.8 633.66 208.24 634.93 208.07C636.17 208 637.59 207.26 639.23 206.07C640.66 204.93 641.66 203.87 642.08 202.66C642.51 201.45 642.38 200.4 641.71 199.5C641.03 198.61 640.03 198.14 638.79 198.21Z" fill="#313131" fill-opacity="1.000000" fill-rule="nonzero"/>
	<path id="Vector" d="M645.12 216.41C644.92 217.17 644.45 218.16 643.93 219.35C643.51 220.15 643.33 220.82 643.13 221.17C643.03 221.55 642.93 221.93 643 222.05L643.22 222.72L642.48 223.24L641.15 221.35C641.01 221.11 641.02 220.71 641.26 220.16C641.51 219.62 641.84 218.79 642.31 217.79C642.92 216.63 643.27 215.71 643.54 215.07C643.82 214.43 643.76 213.9 643.64 213.57L642.99 212.58L638.62 215.58L639.33 217.1L638.59 217.61L635.75 213.39L636.49 212.87L637.5 214.06L647.08 207.56L646.44 206.17L647.19 205.66L649.96 209.76L649.21 210.27L648.2 209.09L643.74 212.07L644.6 213.42L651.18 213.55L650.44 212.13L651.19 211.62L653.73 215.46L652.98 215.97L651.95 214.88L645.2 214.6C645.38 215.05 645.32 215.65 645.12 216.41Z" fill="#313131" fill-opacity="1.000000" fill-rule="nonzero"/>
	<path id="Vector" d="M644.75 225.78C644.81 224.78 645.09 223.73 645.85 222.82C646.51 221.87 647.45 221.01 648.66 220.31C649.89 219.52 651.11 219.13 652.26 219.03C653.5 218.96 654.57 219.14 655.57 219.61C656.56 220.09 657.39 220.81 658.01 221.9C658.99 223.59 659.29 225.09 658.77 226.68C658.26 228.18 657.1 229.5 655.26 230.64C654.03 231.43 652.81 231.81 651.54 231.98C650.3 232.06 649.23 231.87 648.14 231.37C647.14 230.9 646.35 230.08 645.7 229.09C645 227.89 644.78 226.81 644.75 225.78ZM654.29 220.6C653.07 220.58 651.51 221.07 649.8 222.14C648.21 223.14 647.11 224.17 646.59 225.36C645.98 226.52 646.1 227.57 646.73 228.65C647.38 229.64 648.35 230.21 649.57 230.23C650.88 230.28 652.34 229.75 654.06 228.68C655.65 227.68 656.74 226.65 657.26 225.47C657.76 224.38 657.75 223.26 657.12 222.17C656.47 221.18 655.6 220.64 654.29 220.6Z" fill="#313131" fill-opacity="1.000000" fill-rule="nonzero"/>
	<path id="Vector" d="M661.78 230.65L661.25 229.18L662.1 228.7L663.35 230.87C663.56 231.23 663.84 231.71 664.21 232.22C664.58 232.73 664.79 233.09 664.93 233.33C665.74 234.87 666.15 236 665.99 236.97C665.83 237.95 665.37 238.54 664.5 239.12C663.78 239.54 662.91 239.71 662.13 239.61C661.34 239.5 660.63 239.1 660.03 238.33C660.65 239.41 660.83 240.28 660.67 241.25C660.54 242.13 659.95 242.79 659.11 243.28C658.02 243.9 656.88 244 655.76 243.6C654.65 243.2 653.61 242.11 652.57 240.3C652.36 239.94 652.18 239.49 651.97 239.12C651.48 238.28 651.23 237.7 651.16 237.58L649.91 235.41L650.73 235.02L651.61 236.28L661.78 230.65ZM653.32 239.79C653.95 240.88 654.58 241.55 655.34 241.76C656.1 241.96 656.84 241.86 657.68 241.37C658.53 240.88 658.99 240.29 659.14 239.72C659.3 239.15 659.12 238.29 658.56 237.33C657.94 236.24 657.52 235.52 657.38 235.28L652.49 237.94C652.58 238.37 652.83 238.95 653.32 239.79ZM658.9 235.68L659.36 236.62C659.78 237.35 660.37 237.81 660.94 237.96C661.6 238.14 662.25 238.01 663.09 237.52C663.82 237.1 664.26 236.61 664.41 236.04C664.56 235.47 664.36 234.7 663.8 233.74C663.59 233.38 663.29 232.99 663.11 232.53L662.9 232.17L658.34 234.72C658.48 234.96 658.62 235.2 658.9 235.68Z" fill="#313131" fill-opacity="1.000000" fill-rule="nonzero"/>
	<path id="Vector" d="M676.34 256.14L675.52 256.54L674.66 255.19L664.24 260.24L664.81 261.92L663.99 262.31L661.71 257.52L662.53 257.13L663.39 258.48L673.9 253.45L671.27 248.06L660.73 253.19L661.3 254.87L660.48 255.26L658.17 250.56L658.99 250.17L659.78 251.4L670.2 246.35L669.7 244.79L670.52 244.4L676.34 256.14Z" fill="#313131" fill-opacity="1.000000" fill-rule="nonzero"/>
	<path id="Vector" d="M666.03 265.71C666.22 264.64 666.76 263.76 667.49 262.94C668.31 262.14 669.33 261.4 670.6 260.82C671.88 260.25 673.17 259.98 674.36 260.1C675.55 260.21 676.6 260.49 677.54 261.15C678.48 261.81 679.16 262.71 679.6 263.74C680.33 265.57 680.42 267.12 679.64 268.54C678.94 269.98 677.52 271.13 675.57 271.93C674.2 272.48 672.91 272.74 671.72 272.63C670.52 272.51 669.38 272.21 668.44 271.55C667.5 270.89 666.82 269.99 666.29 268.93C665.97 267.83 665.78 266.66 666.03 265.71ZM676.19 262.01C674.93 261.78 673.42 262.09 671.47 262.89C669.74 263.65 668.49 264.53 667.8 265.57C667.12 266.61 666.93 267.68 667.44 268.83C667.94 269.99 668.79 270.62 670.05 270.86C671.31 271.1 672.92 270.81 674.77 269.98C676.5 269.23 677.75 268.34 678.44 267.3C679.13 266.26 679.22 265.17 678.81 264.04C678.3 262.88 677.45 262.25 676.19 262.01Z" fill="#313131" fill-opacity="1.000000" fill-rule="nonzero"/>
	<path id="Vector" d="M675.94 278.14C674.22 278.49 672.86 278.64 671.88 278.48C671.41 278.35 670.93 278.22 670.7 277.96C670.37 277.67 670.13 277.4 669.95 276.94C669.7 276.37 669.61 275.94 669.59 275.62L670.98 274.98C671 275.29 671.19 275.75 671.44 276.32C671.48 276.54 671.65 276.69 671.81 276.83C671.98 276.98 672.17 277.03 672.45 277.1C674.19 277.47 677.21 276.85 681.41 275.23L682.78 274.68L682.22 272.59L683.13 272.22L686.95 282.31L686.03 282.68L685.22 281.14L674.34 285.25L674.79 287L673.9 287.27L671.9 281.84L672.78 281.57L673.64 283.33L684.52 279.22L683.22 275.71L681.63 276.3C679.54 277.27 677.67 277.79 675.94 278.14Z" fill="#313131" fill-opacity="1.000000" fill-rule="nonzero"/>
	<path id="Vector" d="M687.02 286.2L686.72 284.7L687.6 284.42L690.58 293.47L687.93 294.6L687.59 293.59L689.11 292.47L687.76 288.03L682.74 289.64L683.79 292.57L685.37 292.38L685.71 293.39L681.58 294.73L681.24 293.72L682.66 292.98L681.73 289.98L676.48 291.73L678.3 296.7L680.9 296.89L680.91 298.01L677.63 298.46L674.36 288.62L675.25 288.34L675.89 289.74L687.02 286.2Z" fill="#313131" fill-opacity="1.000000" fill-rule="nonzero"/>
	<path id="Vector" d="M691.81 301.03L690.79 298.01L686.79 298.47L686.5 297.27L691.37 296.23L694.57 307.48L689.77 309.04L689.45 307.94L693.06 306.26L692.28 303.09L680.94 306.27L681.46 308.85L680.58 309.13L678.64 302.29L679.53 302.02L680.35 304.28L691.81 301.03Z" fill="#313131" fill-opacity="1.000000" fill-rule="nonzero"/>
	<path id="Vector" d="M688.87 316.95L688.69 316.09C688.46 315.82 687.98 315.69 687.32 315.51C686.65 315.34 685.87 315.23 684.89 315.07C683.92 314.91 683.25 314.73 682.78 314.6C682.3 314.48 682.04 314.31 682 314.09L681.44 311.6L682.3 311.42L682.63 312.12C682.7 312.24 682.96 312.41 683.31 312.61C683.69 312.71 684.26 312.86 685 313.16C685.85 313.39 686.61 313.59 687.28 313.77C687.82 314.02 688.27 314.24 688.6 314.53C688.64 313.63 688.94 312.89 689.4 312.3C689.99 311.65 690.71 311.23 691.57 311.05C692.98 310.72 694.15 310.93 694.88 311.63C695.61 312.34 696.21 313.52 696.58 315.15C696.7 315.48 696.76 316.01 696.82 316.53C696.86 317.16 696.95 317.59 697.06 317.92L697.69 320.53L696.8 320.81L696.18 319.32L684.87 321.99L685.13 323.69L684.29 323.77L682.97 318.43L683.84 318.25L684.4 319.93L689.2 318.77L688.87 316.95ZM695.87 316.69C695.8 316.16 695.74 315.63 695.65 315.2C695.41 314.22 695.06 313.62 694.57 313.18C694.07 312.74 693.26 312.73 692.28 312.97C691.3 313.22 690.57 313.64 690.2 314.25C689.84 314.87 689.73 315.65 689.97 316.63C690.22 317.62 690.35 318.26 690.49 318.5L696.05 317.14L695.87 316.69Z" fill="#313131" fill-opacity="1.000000" fill-rule="nonzero"/>
	<path id="Vector" d="M698.05 327.15L697.37 324.01L693.35 324.16L693.16 322.99L698.11 322.38L700.35 333.78L695.46 334.91L695.27 333.74L698.99 332.39L698.52 329.21L686.93 331.4L687.25 334.03L686.38 334.21L685 327.22L685.86 327.04L686.56 329.37L698.05 327.15Z" fill="#313131" fill-opacity="1.000000" fill-rule="nonzero"/>
	<path id="Vector" d="M688.69 344.61C689.16 343.61 689.92 342.69 690.88 342.14C691.87 341.49 693.09 341.1 694.48 340.86C695.84 340.72 697.16 340.76 698.25 341.26C699.36 341.66 700.28 342.42 701.05 343.33C701.82 344.25 702.23 345.38 702.4 346.65C702.55 347.61 702.56 348.73 702.39 350.11L702.33 350.71L699.01 350.94L698.84 349.67L701.1 348.85C701.25 348.68 701.35 348.3 701.36 347.9C701.36 347.49 701.42 346.9 701.26 346.35C701.16 345.6 700.83 344.91 700.27 344.35C699.71 343.79 699 343.4 698.05 343.14C697.1 342.89 696.07 342.92 694.83 342.99C693.65 343.19 692.67 343.43 691.73 343.89C690.8 344.36 690.14 344.89 689.65 345.58C689.16 346.26 689.03 347.14 689.11 347.98C689.24 348.63 689.31 349.15 689.52 349.51C689.63 349.85 689.86 350.12 690.1 350.38L692 350.89L691.98 352.11L689.26 351.99C689.21 351.78 689.13 351.34 688.85 350.86C688.66 350.41 688.46 350.04 688.37 349.61C688.28 349.18 688.1 348.73 688.06 348.1C688.08 346.89 688.2 345.7 688.69 344.61Z" fill="#313131" fill-opacity="1.000000" fill-rule="nonzero"/>
	<path id="Vector" d="M703.59 358.17L702.66 358.23L702.24 356.39L692.85 357.23L695.23 358.58L702.31 363.33L702.84 363.27L702.89 361.55L703.82 361.5L704.29 366.61L703.36 366.67L703.02 365.25L691.43 366.32L691.4 367.95L690.47 368L690.03 362.79L690.96 362.74L691.34 364.36L700.83 363.55L698.51 362.31L691.36 357.44L690.74 357.48L690.69 359.2L689.76 359.25L689.32 354.04L690.25 353.99L690.56 355.5L702.15 354.43L702.25 352.93L703.18 352.87L703.59 358.17Z" fill="#313131" fill-opacity="1.000000" fill-rule="nonzero"/>
	<path id="Vector" d="M704.87 378.48L700 378.81L699.93 377.56L703.69 376.84L703.66 372.76L691.91 373.28L691.85 376.52L690.92 376.58L690.54 369.24L691.48 369.19L691.75 371.2L703.31 370.63L703.44 368.63L704.37 368.57L704.87 378.48Z" fill="#313131" fill-opacity="1.000000" fill-rule="nonzero"/>
	<path id="Vector" d="M703.79 381.76L703.99 380.28L704.89 380.32L704.85 385.4L703.95 385.36L703.76 383.78L698.77 383.77L698.73 390.38L703.72 390.4L703.91 388.92L704.82 388.96L704.81 393.95L703.9 393.91L703.69 392.42L692.06 392.47L691.87 393.94L690.96 393.9L690.98 388.92L691.88 388.95L692.07 390.53L697.46 390.55L697.5 383.94L692.11 383.92L691.89 385.49L690.99 385.46L690.93 380.35L691.84 380.39L692.05 381.87L703.79 381.76Z" fill="#313131" fill-opacity="1.000000" fill-rule="nonzero"/>
	<path id="Vector" d="M704.84 400.68L704.8 402.7L691.73 406.64L691.52 407.8L690.61 407.76L690.81 402.83L691.72 402.87L691.81 404.42L694.67 403.66L694.9 398.22L692.22 397.19L692 398.77L691.1 398.73L691.27 394.29L692.17 394.33L692.27 395.48L704.84 400.68ZM701.79 401.79L703.41 401.42L701.73 400.86L695.8 398.66L695.55 403.38L701.79 401.79Z" fill="#313131" fill-opacity="1.000000" fill-rule="nonzero"/>
	<path id="Vector" d="M695.2 413.07C693.49 412.61 692.28 412.18 691.43 411.55C691.01 411.23 690.68 410.94 690.56 410.6C690.36 410.24 690.36 409.84 690.37 409.43C690.43 408.83 690.43 408.43 690.6 408.17L692.13 408.17C692.06 408.46 692.02 408.96 691.97 409.55C691.91 409.74 691.96 409.96 692.1 410.2C692.14 410.41 692.31 410.56 692.57 410.73C693.91 411.8 696.98 412.52 701.46 412.91L702.96 413.01L703.33 410.87L704.23 410.9L703.29 421.65L702.38 421.61L702.34 419.87L690.81 418.82L690.42 420.65L689.51 420.61L690.04 414.84L690.95 414.88L690.94 416.81L702.47 417.87L702.77 414.08L701.08 413.93C698.79 413.72 696.84 413.41 695.2 413.07Z" fill="#313131" fill-opacity="1.000000" fill-rule="nonzero"/>
	<path id="Vector" d="M696.84 428.99C696.65 430.47 696.13 431.65 695.23 432.33C694.43 433.03 693.36 433.25 692.07 433.11C690.69 432.94 689.65 432.26 689 431.27C688.35 430.28 688.18 429.01 688.37 427.53C688.42 427.34 688.47 427.15 688.43 426.94C688.38 426.72 688.53 426.56 688.61 426.27C688.78 425.61 688.87 424.92 689.02 424.35L689.4 421.8L690.28 421.93L690.25 423.56L701.82 425.23L702.32 423.74L703.2 423.87L702.4 429.15L701.52 429.02L701.41 427.16L697.1 426.51L696.84 428.99ZM689.61 426.34C689.56 426.53 689.45 426.91 689.45 427.31C689.26 428.38 689.46 429.15 690 429.8C690.54 430.46 691.25 430.85 692.35 430.94C693.32 431.1 694.18 430.93 694.72 430.46C695.34 430.01 695.64 429.28 695.83 428.21L696.12 426.35L689.84 425.48C689.73 425.86 689.66 426.15 689.61 426.34ZM700.55 441.39L699.67 441.26L699.72 439.54L688.24 437.89L687.78 439.6L686.9 439.47L687.64 434.06L688.52 434.2L688.47 435.91L699.94 437.56L700.4 435.85L701.28 435.98L700.55 441.39Z" fill="#313131" fill-opacity="1.000000" fill-rule="nonzero"/>
	<path id="Vector" d="M697.74 449.6L698.31 448.23L699.16 448.45L698.03 453.45L697.17 453.22L697.3 451.62L692.4 450.51L690.98 456.96L695.87 458.07L696.45 456.69L697.3 456.92L696.19 461.82L695.34 461.59L695.44 460.09L684.07 457.65L683.59 459.05L682.74 458.82L683.84 453.92L684.7 454.15L684.6 455.66L689.91 456.77L691.33 450.33L686.02 449.21L685.5 450.8L684.64 450.57L685.78 445.58L686.63 445.81L686.53 447.31L697.74 449.6Z" fill="#313131" fill-opacity="1.000000" fill-rule="nonzero"/>
	<path id="Vector" d="M694.7 468.14L694.17 470.14L680.59 471.39L680.1 472.48L679.24 472.25L680.42 467.47L681.27 467.7L681.06 469.27L683.95 469.13L685.25 463.88L682.8 462.4L682.2 463.87L681.34 463.64L682.39 459.34L683.25 459.57L683.13 460.76L694.7 468.14ZM691.55 468.52L693.29 468.47L691.78 467.66L686.44 464.4L685.31 468.98L691.55 468.52Z" fill="#313131" fill-opacity="1.000000" fill-rule="nonzero"/>
	<path id="Vector" d="M689.18 483.06L690.09 481.17L690.92 481.49L689.36 486.16L680.56 485.94L678.15 485.81L680.26 487.09L687.42 492.27L685.87 496.94L685.04 496.62L685.48 494.6L673.96 492.33L673.27 493.77L672.44 493.45L674.13 488.29L674.96 488.62L674.62 490.26L682.87 492.16L686.43 492.92L684.12 491.28L675.87 485.2L676.27 484.08L685.75 484.08L689.49 484.16L686.13 482.65L678.38 479.25L677.61 480.98L676.78 480.65L678.32 476.07L679.15 476.4L678.83 477.94L689.18 483.06Z" fill="#313131" fill-opacity="1.000000" fill-rule="nonzero"/>
	<path id="Vector" d="M683.25 503.67L682.52 505.62L668.9 505.13L668.34 506.1L667.51 505.77L669.35 501.17L670.18 501.5L669.77 503.02L672.68 503.19L674.65 498.11L672.39 496.28L671.61 497.7L670.78 497.38L672.4 493.23L673.23 493.55L673.02 494.72L683.25 503.67ZM680 503.62L681.69 503.77L680.33 502.79L675.48 498.84L673.78 503.28L680 503.62Z" fill="#313131" fill-opacity="1.000000" fill-rule="nonzero"/>
	<path id="Vector" d="M678.18 512.71L679.01 511.5L679.84 511.83L678.82 514.1C678.6 514.55 678.5 514.93 678.3 515.28C678.03 515.93 677.88 516.5 677.63 517.04C676.88 518.67 676.1 519.69 675.17 520.15C674.25 520.52 673.23 520.55 671.95 520C671.05 519.55 670.36 519.07 669.85 518.32C669.34 517.57 669.14 516.8 669.08 515.87C669.02 514.94 669.28 513.99 669.72 513.09C669.92 512.73 670 512.45 670.19 512.09C670.39 511.74 670.44 511.55 670.56 511.48L666.82 509.87L665.61 512.09L664.78 511.76L667.29 506.22L668.12 506.55L667.61 508.04L678.18 512.71ZM670.62 513.53C670.18 514.43 670.16 515.24 670.44 516.13C670.71 517.02 671.46 517.63 672.74 518.17C673.73 518.65 674.55 518.66 675.12 518.4C675.82 518.08 676.31 517.4 676.78 516.4C676.98 516.05 677.08 515.67 677.21 515.2C677.28 514.91 677.33 514.72 677.36 514.63L671.25 511.97C671.17 512.25 670.92 512.8 670.62 513.53Z" fill="#313131" fill-opacity="1.000000" fill-rule="nonzero"/>
	<path id="Vector" d="M661.71 519.8C662.68 519.25 663.78 518.93 664.9 518.93C666.12 518.95 667.35 519.28 668.61 519.92C669.86 520.56 670.87 521.34 671.53 522.33C672.27 523.34 672.59 524.45 672.69 525.6C672.79 526.74 672.58 527.91 671.96 529.07C671.52 529.97 670.86 530.91 670.05 532.02L669.71 532.54L666.77 530.94L667.27 529.85L669.65 530.49C669.86 530.44 670.13 530.21 670.42 529.88C670.71 529.55 670.93 529.1 671.28 528.58C671.67 527.87 671.75 527.18 671.58 526.32C671.47 525.58 671.05 524.85 670.45 524.08C669.81 523.4 668.96 522.77 667.81 522.15C666.72 521.65 665.7 521.28 664.72 521.12C663.74 520.96 662.81 521.01 661.99 521.41C661.2 521.7 660.64 522.27 660.2 523.17C659.93 523.81 659.7 524.26 659.7 524.66C659.59 525.04 659.61 525.35 659.73 525.69L661.06 527.17L660.4 528.11L658.19 526.5C658.26 526.21 658.36 525.83 658.49 525.36C658.62 524.88 658.63 524.48 658.75 524C658.85 523.62 659.1 523.08 659.35 522.53C659.97 521.37 660.72 520.45 661.71 519.8Z" fill="#313131" fill-opacity="1.000000" fill-rule="nonzero"/>
	<path id="Vector" d="M662.08 547.3L661.3 546.79L662.07 545.06L653.97 540.34L655.14 542.79L658.09 550.81L658.54 551.04L659.61 549.69L660.39 550.21L657.78 554.6L657.01 554.09L657.58 552.71L647.53 546.87L646.58 548.14L645.78 547.72L648.4 543.23L649.21 543.65L648.49 545.19L656.67 550.03L655.44 547.76L652.52 539.65L651.91 539.28L650.81 540.72L650.01 540.3L652.66 535.71L653.46 536.13L652.87 537.6L662.91 543.45L663.84 542.27L664.62 542.79L662.08 547.3Z" fill="#313131" fill-opacity="1.000000" fill-rule="nonzero"/>
	<path id="Vector" d="M655.37 557.93C655.12 558.47 654.99 558.95 654.79 559.3C654.6 559.66 654.4 560.01 654.23 560.27C653.37 561.57 652.52 562.46 651.61 562.83C650.7 563.2 649.79 563.16 648.91 562.62C648.04 562.08 647.62 561.35 647.45 560.49C647.27 559.63 647.38 558.84 647.73 557.92C647.07 558.86 646.29 559.47 645.43 559.65C644.57 559.82 643.78 559.71 643.01 559.2C641.87 558.49 641.2 557.59 641.09 556.45C640.97 555.4 641.33 554.07 642.35 552.51C642.72 551.89 643.16 551.4 643.6 550.9C644.01 550.51 644.4 550.2 644.66 549.97C644.93 549.73 645.08 549.57 645.17 549.59L647.69 551.59L647.18 552.37L644.88 551.45C644.28 551.8 643.72 552.36 643.06 553.31C642.57 553.99 642.49 554.68 642.62 555.33C642.75 555.97 643.31 556.53 644.19 557.07C644.8 557.44 645.47 557.62 646.21 557.51C646.95 557.4 647.6 556.87 648.14 555.99L648.85 554.86L649.73 555.4L649.19 556.27C648.87 556.7 648.74 557.17 648.62 557.65C648.58 558.15 648.65 558.68 648.83 559.13C649.01 559.59 649.41 560 649.93 560.34C650.62 560.83 651.31 560.92 651.86 560.76C652.41 560.6 652.94 560.13 653.43 559.45C653.75 559.02 653.97 558.57 653.98 558.17C654.08 557.79 654.06 557.48 653.92 557.24L652.63 555.97L653.29 555.03L655.77 556.41C655.72 557 655.52 557.36 655.37 557.93Z" fill="#313131" fill-opacity="1.000000" fill-rule="nonzero"/>
	<path id="Vector" d="M645.58 570.89L646.69 569.76L647.47 570.28L646.01 572.33C645.71 572.66 645.49 573.11 645.12 573.72C644.78 574.24 644.58 574.6 644.41 574.86C643.44 576.22 642.49 577.09 641.6 577.36C640.71 577.63 639.83 577.5 639.08 576.89C638.4 576.4 637.86 575.75 637.68 574.89C637.48 574.12 637.59 573.33 637.91 572.5C637.25 573.45 636.48 574.05 635.59 574.33C634.73 574.5 633.85 574.37 633.09 573.76C632.08 572.98 631.53 572.01 631.43 570.87C631.33 569.72 631.83 568.22 633.07 566.62C633.36 566.29 633.56 565.94 633.85 565.61C634.46 564.86 634.81 564.34 634.93 564.27L636.39 562.21L637.17 562.73L636.41 564.05L645.58 570.89ZM633.66 567.09C632.88 568.1 632.63 569.05 632.64 569.77C632.65 570.48 633.16 571.23 633.94 571.74C634.69 572.35 635.45 572.56 636.1 572.43C636.75 572.29 637.4 571.76 638.04 570.91C638.82 569.89 639.21 569.18 639.38 568.92L634.85 565.67C634.73 565.74 634.3 566.24 633.66 567.09ZM639.72 570.34L639.08 571.19C638.59 571.87 638.41 572.54 638.55 573.18C638.68 573.83 639.12 574.46 639.81 574.95C640.49 575.43 641.15 575.61 641.78 575.58C642.33 575.42 642.96 574.98 643.62 574.03C643.91 573.7 644.13 573.25 644.33 572.9L644.52 572.54L640.35 569.49C640.3 569.68 640.03 569.91 639.72 570.34Z" fill="#313131" fill-opacity="1.000000" fill-rule="nonzero"/>
	<path id="Vector" d="M636.8 584.63L635.56 586.23L622.6 581.74L621.78 582.54L621.03 581.93L624.1 578.07L624.85 578.68L623.99 579.98L626.67 581L630.06 576.71L628.46 574.35L627.34 575.48L626.59 574.87L629.34 571.43L630.09 572.04L629.5 573.1L636.8 584.63ZM633.72 583.6L635.28 584.22L634.23 582.82L630.74 577.61L627.81 581.31L633.72 583.6Z" fill="#313131" fill-opacity="1.000000" fill-rule="nonzero"/>
	<path id="Vector" d="M619.45 584.77C620.55 584.45 621.68 584.45 622.82 584.76C623.96 585.06 625.09 585.77 626.17 586.67C627.25 587.57 628 588.59 628.41 589.72C628.82 590.85 628.92 591.99 628.71 593.16C628.5 594.33 627.91 595.39 627.15 596.31C626.55 597.06 625.63 597.83 624.59 598.67L624.08 599.05L621.66 596.67L622.51 595.78L624.64 596.96C624.85 596.91 625.19 596.8 625.58 596.5C625.94 596.29 626.35 595.89 626.69 595.37C627.25 594.81 627.55 594.07 627.56 593.26C627.67 592.47 627.47 591.71 626.98 590.86C626.5 590.02 625.92 589.15 624.9 588.37C623.98 587.61 623.14 586.98 622.21 586.63C621.29 586.28 620.4 586.15 619.57 586.23C618.73 586.31 618.01 586.73 617.4 587.48C616.96 587.97 616.64 588.4 616.54 588.78C616.34 589.13 616.36 589.44 616.29 589.73L617.14 591.49L616.22 592.26L614.54 590.18C614.68 590.01 614.88 589.66 615.13 589.11C615.35 588.66 615.55 588.31 615.75 587.95C615.94 587.6 616.26 587.17 616.7 586.68C617.33 585.83 618.35 585.09 619.45 584.77Z" fill="#313131" fill-opacity="1.000000" fill-rule="nonzero"/>
	<path id="Vector" d="M615.53 604.7C615.85 605.81 615.88 606.83 615.63 607.78C615.37 608.73 614.93 609.63 614.13 610.34C613.28 611.23 612.31 611.78 611.33 612.03C610.35 612.28 609.25 612.19 608.23 611.81C607.21 611.44 606.17 610.75 605.19 609.88C604.13 608.88 603.31 607.74 602.93 606.52C602.52 605.39 602.32 604.22 602.6 603.17C602.79 602.1 603.35 601.13 604.08 600.31C604.93 599.42 605.9 598.86 606.9 598.52C607.89 598.27 608.98 598.36 610 598.74C611.02 599.11 612.06 599.8 613.05 600.68L615.16 598.49L611.19 594.68L609.91 595.66L609.28 594.98L612.83 591.25L613.48 591.83L612.53 593.1L620.87 601.14L622.03 600.23L622.66 600.91L619.14 604.55L618.51 603.87L619.46 602.6L615.82 599.08L613.71 601.26C614.69 602.54 615.22 603.6 615.53 604.7ZM614.36 606.43C614.07 605.23 613.21 603.88 611.75 602.47C610.46 601.21 609.14 600.44 607.88 600.21C606.62 599.97 605.51 600.29 604.66 601.18C603.81 602.07 603.56 603.02 603.85 604.22C604.14 605.42 605 606.77 606.55 608.2C607.84 609.47 609.07 610.2 610.31 610.53C611.54 610.87 612.55 610.52 613.4 609.63C614.25 608.74 614.53 607.69 614.36 606.43Z" fill="#313131" fill-opacity="1.000000" fill-rule="nonzero"/>
	<path id="Vector" d="M597.26 615.49C596.48 615.38 595.43 615.1 594.2 614.77C593.34 614.54 592.68 614.37 592.2 614.24C591.82 614.14 591.51 614.15 591.27 614.3L590.57 614.62L589.94 613.94L591.59 612.34C591.83 612.2 592.17 612.09 592.83 612.27C593.4 612.42 594.26 612.65 595.4 612.96C596.61 613.38 597.56 613.64 598.34 613.75C599.01 613.92 599.53 613.86 599.83 613.53L600.65 612.73L597.02 608.81L595.64 609.76L595.01 609.08L598.79 605.62L599.42 606.29L598.4 607.45L606.3 615.98L607.56 615.09L608.19 615.77L604.53 619.17L603.9 618.49L604.85 617.22L601.21 613.29L600 614.39L600.89 620.95L602.15 620.06L602.78 620.74L599.39 623.91L598.76 623.23L599.68 622.05L598.94 615.33C598.77 615.59 598.05 615.6 597.26 615.49Z" fill="#313131" fill-opacity="1.000000" fill-rule="nonzero"/>
	<path id="Vector" d="M587.98 616.67C589.04 616.55 590.11 616.73 591.08 617.3C592.17 617.79 593.06 618.64 593.99 619.71C594.93 620.78 595.53 621.96 595.82 623.15C596.11 624.35 596.12 625.47 595.74 626.49C595.37 627.51 594.8 628.48 593.88 629.25C592.43 630.5 590.87 630.99 589.3 630.78C587.73 630.56 586.26 629.56 584.76 627.93C583.83 626.87 583.23 625.69 582.94 624.49C582.65 623.29 582.64 622.17 583.04 621.05C583.35 619.91 583.98 619.06 584.9 618.29C585.9 617.24 586.93 616.8 587.98 616.67ZM594.55 625.26C594.38 623.99 593.64 622.57 592.3 621.09C591.06 619.64 589.86 618.81 588.65 618.38C587.44 617.95 586.36 618.17 585.44 618.95C584.52 619.72 584.14 620.74 584.31 622.01C584.48 623.27 585.22 624.69 586.53 626.27C587.77 627.72 588.98 628.55 590.19 628.98C591.42 629.31 592.5 629.09 593.42 628.32C594.34 627.54 594.71 626.52 594.55 625.26Z" fill="#313131" fill-opacity="1.000000" fill-rule="nonzero"/>
	<path id="Vector" d="M585.85 634.13L587.18 633.37L587.78 634.14L585.85 635.66C585.49 635.87 585.08 636.27 584.64 636.76C584.23 637.16 583.84 637.46 583.6 637.6C582.2 638.65 581.14 639.18 580.21 639.24C579.27 639.3 578.47 638.88 577.86 638.1C577.32 637.45 577.03 636.66 577.04 635.84C577.05 635.03 577.35 634.3 577.94 633.64C577.02 634.41 576.1 634.78 575.2 634.74C574.29 634.7 573.49 634.28 572.88 633.51C572.13 632.49 571.82 631.39 572.03 630.22C572.24 629.06 573.19 627.78 574.74 626.57C575.13 626.27 575.49 626.06 575.75 625.82C576.53 625.22 577.01 624.94 577.15 624.77L579.09 623.25L579.6 624L578.49 625.13L585.85 634.13ZM575.47 627.27C574.45 628.02 573.94 628.8 573.83 629.59C573.72 630.37 573.92 631.14 574.53 631.91C575.14 632.69 575.75 633.05 576.44 633.14C577.13 633.22 577.83 632.9 578.72 632.22C579.74 631.48 580.39 630.94 580.56 630.68L577.15 626.3C576.77 626.2 576.27 626.57 575.47 627.27ZM580.4 632.06L579.62 632.67C578.97 633.2 578.6 633.82 578.52 634.51C578.44 635.2 578.66 635.87 579.3 636.55C579.83 637.2 580.45 637.57 581.04 637.63C581.64 637.69 582.34 637.37 583.23 636.69C583.62 636.39 583.91 636.06 584.3 635.75L584.56 635.52L581.39 631.41C581.05 631.52 580.78 631.76 580.4 632.06Z" fill="#313131" fill-opacity="1.000000" fill-rule="nonzero"/>
</svg>
